<?xml version="1.0" standalone="no"?>
<!DOCTYPE svg PUBLIC "-//W3C//DTD SVG 20010904//EN"
 "http://www.w3.org/TR/2001/REC-SVG-20010904/DTD/svg10.dtd">
<svg version="1.0" xmlns="http://www.w3.org/2000/svg"
 width="750.000000pt" height="939.000000pt" viewBox="0 0 750.000000 939.000000"
 preserveAspectRatio="xMidYMid meet">

<g transform="translate(0.000000,939.000000) scale(0.100000,-0.100000)"
fill="#000000" stroke="none">
<path d="M4210 8799 c0 -5 11 -11 25 -15 14 -3 25 -9 25 -13 0 -4 10 -12 23
-18 38 -18 174 -152 206 -203 17 -28 28 -50 24 -50 -4 0 -32 17 -63 39 -50 35
-113 61 -149 61 -8 0 6 -14 30 -31 75 -54 277 -270 218 -233 -8 4 -86 53 -174
108 -88 54 -187 116 -221 136 -98 61 -244 131 -314 151 -38 11 -129 23 -220
29 -85 6 -173 13 -195 17 -58 9 -40 -3 72 -47 101 -40 102 -51 4 -26 -164 42
-223 58 -239 63 -9 3 1 -13 23 -36 27 -28 33 -40 20 -35 -19 7 -19 6 -3 -12
16 -18 35 -74 26 -74 -19 0 -208 85 -235 106 -19 14 -36 24 -38 22 -9 -9 16
-72 37 -96 20 -22 21 -23 3 -13 -11 6 -30 19 -43 28 -23 16 -23 16 -16 -13 8
-32 62 -131 100 -181 23 -30 23 -33 7 -33 -63 0 -199 51 -376 141 -65 34 -121
59 -123 56 -3 -2 11 -27 30 -56 19 -28 32 -51 28 -51 -4 0 -27 18 -51 40 -25
22 -46 40 -48 40 -7 0 27 -59 37 -65 24 -15 6 -24 -39 -18 -76 9 -97 0 -114
-49 -8 -24 -18 -51 -22 -60 -7 -16 -1 -17 71 -12 98 8 91 -4 -12 -21 -105 -19
-118 -35 -28 -36 l69 -1 -77 -17 c-79 -18 -100 -32 -134 -94 -15 -28 -27 -44
-77 -103 -15 -18 -24 -35 -20 -37 5 -3 61 -11 126 -18 64 -7 117 -16 117 -20
0 -3 -28 -12 -62 -18 -119 -23 -288 -65 -288 -72 0 -4 21 -19 48 -34 48 -27
118 -48 207 -61 l50 -7 -40 -9 c-22 -6 -98 -26 -169 -46 -114 -31 -126 -37
-105 -46 13 -6 31 -20 41 -31 14 -18 28 -20 117 -20 56 0 101 -1 101 -2 0 0
-26 -16 -57 -33 -129 -72 -213 -123 -228 -140 -14 -15 -14 -18 0 -30 14 -11
12 -16 -17 -41 -27 -23 -30 -30 -19 -38 8 -5 30 -7 50 -4 42 5 168 29 205 39
44 11 31 -19 -41 -96 -38 -40 -69 -76 -71 -81 -6 -16 24 -10 49 10 28 21 90
54 94 49 1 -2 -8 -64 -20 -138 -24 -141 -52 -366 -65 -508 -6 -72 -10 -85 -31
-100 -13 -9 -60 -48 -104 -87 -44 -39 -107 -91 -140 -117 -61 -46 -114 -98
-102 -98 4 0 31 19 60 43 55 45 215 142 222 135 2 -2 -37 -34 -88 -70 -103
-73 -245 -200 -229 -206 5 -1 37 13 70 33 71 41 84 44 52 10 -33 -35 -16 -31
33 8 45 36 67 51 67 44 0 -2 -51 -51 -114 -108 -63 -57 -112 -107 -110 -111 3
-5 17 1 31 12 44 34 49 22 8 -20 -21 -22 -36 -40 -32 -40 3 0 32 18 63 40 32
22 59 38 61 36 2 -2 -4 -17 -14 -34 -10 -17 -14 -34 -11 -38 10 -9 72 33 121
81 21 21 40 35 43 32 7 -6 -26 -71 -66 -130 -58 -86 -74 -181 -38 -224 21 -26
37 -15 31 21 -3 19 -1 36 6 40 7 5 11 -6 11 -33 0 -22 6 -46 13 -53 10 -10 11
-55 5 -213 -8 -212 -16 -286 -42 -375 -26 -86 -31 -247 -12 -380 18 -133 51
-207 165 -377 72 -106 105 -131 188 -141 42 -4 42 -5 48 -51 3 -25 21 -129 41
-231 20 -102 41 -212 45 -245 11 -71 36 -176 54 -225 8 -19 21 -66 30 -105 9
-38 33 -96 52 -129 l36 -58 -8 -262 c-10 -343 -12 -903 -3 -989 8 -75 8 -74
-84 -156 -27 -24 -28 -24 -48 -6 -17 16 -32 17 -112 12 -96 -6 -147 -19 -233
-58 -55 -24 -65 -34 -65 -66 0 -18 -9 -25 -42 -33 -24 -7 -97 -31 -163 -55
-66 -24 -145 -51 -175 -60 -256 -80 -304 -97 -540 -198 -427 -182 -705 -333
-950 -517 -30 -23 -74 -55 -97 -72 -24 -18 -41 -33 -40 -35 2 -1 116 56 253
129 137 72 299 154 359 183 61 29 160 76 220 105 235 113 500 221 730 298 132
44 287 101 343 126 l102 45 0 -41 c0 -56 38 -310 53 -352 15 -44 178 -230 276
-318 148 -131 370 -294 471 -345 113 -57 127 -55 20 4 -226 123 -714 553 -739
651 -5 20 -15 100 -21 177 -6 77 -13 160 -16 186 -4 36 -1 49 14 62 22 20 106
51 192 71 71 17 82 5 13 -12 -53 -14 -193 -87 -193 -102 0 -5 19 2 43 15 35
20 199 85 213 85 2 0 4 -34 3 -75 -1 -70 -3 -77 -28 -91 -23 -14 -13 -13 22 1
9 4 18 -19 31 -86 27 -144 57 -212 123 -281 123 -128 416 -287 713 -388 105
-36 323 -90 360 -90 20 0 51 -5 67 -11 36 -12 111 0 388 62 248 56 421 105
545 154 58 23 126 49 152 59 47 17 117 65 175 119 l32 30 38 -23 c21 -13 66
-52 101 -88 34 -36 62 -60 62 -54 0 13 -114 130 -155 158 l-29 21 70 89 c145
182 244 354 244 421 0 18 3 33 7 33 20 0 135 -75 162 -105 17 -20 31 -32 31
-27 0 23 -75 92 -129 118 -53 25 -61 33 -61 57 0 24 3 27 20 22 32 -10 152
-85 183 -113 l27 -26 0 27 c0 20 -17 44 -62 89 -63 61 -63 62 -21 38 24 -13
45 -31 48 -39 3 -9 25 -37 48 -63 34 -38 84 -68 267 -163 124 -65 238 -127
253 -137 16 -11 111 -64 210 -118 100 -54 229 -124 287 -155 110 -60 272 -138
312 -150 13 -4 55 -28 93 -54 100 -67 106 -69 51 -20 -62 56 -83 70 -236 161
-69 41 -163 98 -210 128 -47 29 -148 89 -225 133 -77 43 -172 101 -212 128
-39 27 -74 49 -77 49 -3 0 -48 23 -98 52 -137 76 -319 164 -355 172 -17 4 -38
17 -46 29 -67 100 -232 200 -334 202 -33 0 -58 6 -66 15 -68 74 -105 437 -99
970 4 368 11 447 46 493 39 51 53 107 66 263 6 75 13 140 15 144 5 8 38 231
55 365 6 50 20 140 31 200 l20 110 57 1 c70 1 110 21 156 76 137 168 218 276
256 339 l45 73 -3 217 -2 216 -59 184 c-60 191 -74 239 -67 239 2 0 23 -7 46
-15 48 -17 100 -20 100 -5 0 5 -18 19 -40 30 -47 24 -52 33 -10 19 49 -18 55
-5 11 25 -67 46 -131 158 -131 228 l0 30 31 -27 c43 -35 50 -23 11 18 -42 43
-40 51 3 27 39 -22 46 -13 15 15 -51 46 -57 70 -69 275 -6 107 -14 213 -17
235 -4 22 -3 37 1 33 8 -8 65 -273 65 -305 0 -12 5 -25 11 -29 14 -8 5 68 -32
264 -43 226 -41 224 40 -48 17 -57 37 -109 43 -115 7 -6 9 -6 5 0 -10 19 -147
538 -143 542 6 7 46 -103 72 -202 23 -83 24 -86 20 -35 -3 30 -17 93 -32 140
-14 47 -27 110 -29 140 -2 51 -27 128 -76 239 -34 75 -15 55 30 -32 43 -82
109 -177 123 -177 4 0 -9 28 -29 63 -43 76 -94 177 -90 177 2 0 21 -27 42 -60
34 -53 55 -73 55 -54 0 11 -138 260 -188 339 -17 27 -29 51 -27 54 11 10 128
-72 193 -135 39 -40 72 -68 72 -64 0 13 -117 157 -132 163 -11 4 -11 6 0 6 23
2 130 -66 161 -101 48 -54 45 -25 -4 35 -64 79 -137 126 -248 158 -34 10 -56
24 -75 49 -136 182 -514 483 -711 565 -61 26 -71 34 -71 55 -1 44 -46 137
-100 205 -54 68 -170 169 -230 200 -51 26 -230 84 -230 74z m334 -237 c43 -60
27 -61 -18 -1 -21 28 -32 49 -25 47 8 -3 27 -23 43 -46z m-1286 -60 c102 -74
167 -112 191 -112 6 0 11 -5 11 -11 0 -23 -81 -1 -133 35 -56 38 -197 165
-184 166 4 0 56 -35 115 -78z m797 -18 c50 -14 140 -50 200 -81 105 -53 225
-122 225 -129 0 -2 -73 33 -162 78 -90 44 -215 98 -278 119 -130 44 -120 52
15 13z m65 -91 c141 -59 280 -126 280 -135 0 -18 -42 -3 -203 75 -95 46 -188
91 -207 100 -71 34 20 6 130 -40z m-1266 -27 c66 -30 122 -46 164 -46 17 0 32
-5 32 -11 0 -8 -18 -10 -55 -7 -44 4 -53 2 -44 -9 9 -10 5 -11 -22 -1 -41 14
-139 76 -139 89 0 13 5 12 64 -15z m380 0 c88 2 85 -11 -5 -22 -58 -7 -144 10
-134 27 4 5 18 6 33 2 15 -5 63 -7 106 -7z m-174 -17 c13 -7 13 -8 0 -8 -8 0
-26 6 -40 15 l-25 15 25 -7 c14 -3 32 -10 40 -15z m370 -17 c41 -17 102 -35
135 -42 73 -14 116 -30 110 -40 -3 -4 -38 -12 -77 -16 l-73 -9 120 -5 120 -5
-75 -15 c-97 -19 -195 -15 -288 10 -146 40 -139 46 56 42 121 -2 172 1 162 8
-8 5 -29 10 -47 10 -44 0 -144 33 -198 64 -41 24 -63 46 -32 33 6 -3 46 -19
87 -35z m-544 -52 c30 0 54 -4 54 -9 0 -6 -22 -8 -50 -6 -58 3 -63 0 -17 -14
24 -8 7 -10 -78 -8 -69 2 -121 8 -140 17 -30 14 -29 15 45 21 41 3 88 4 104 3
16 -2 53 -4 82 -4z m1347 -18 c43 -10 75 -21 71 -25 -12 -12 -74 -8 -128 7
-28 8 -67 19 -86 24 -35 10 -35 10 15 10 28 1 85 -7 128 -16z m-1327 -41 c-3
-5 -29 -14 -56 -21 -28 -7 -58 -19 -66 -28 -21 -20 -87 -31 -197 -31 -67 -1
-88 2 -85 12 3 6 20 14 39 17 l34 6 -33 8 c-18 4 -32 12 -30 18 3 7 70 11 181
13 97 1 180 5 184 8 10 10 35 8 29 -2z m1938 -26 c14 -9 29 -16 33 -16 14 1
107 -48 138 -74 l30 -25 -29 0 c-36 0 -177 -42 -237 -71 -49 -23 -42 -21 81
15 96 29 177 41 212 33 21 -6 48 -26 178 -135 l44 -37 -29 -6 c-29 -6 -29 -7
7 -8 59 -2 53 -19 -9 -26 -172 -19 -291 -41 -280 -51 3 -3 31 0 64 5 32 6 116
12 186 13 l127 2 60 -59 c33 -33 60 -63 60 -66 0 -3 -64 -6 -142 -7 -182 -2
-274 -8 -471 -33 -87 -12 -160 -19 -161 -17 -60 71 -183 208 -262 292 -57 60
-104 111 -104 115 0 3 28 18 63 33 34 14 121 53 192 87 113 52 136 59 177 56
26 -2 59 -12 72 -20z m-319 -15 c-3 -5 -13 -10 -21 -10 -21 0 -395 -193 -473
-244 -36 -24 -117 -74 -179 -111 -97 -58 -249 -167 -583 -418 -199 -149 -455
-357 -579 -472 -205 -188 -250 -228 -309 -271 l-64 -46 7 38 c4 22 13 81 21
132 8 52 21 106 31 120 31 50 99 137 116 150 9 6 36 31 60 55 24 23 76 69 116
101 39 32 72 60 72 63 0 7 -165 -120 -173 -134 -5 -7 -13 -10 -19 -7 -6 4 -8
3 -5 -3 4 -5 -7 -23 -23 -38 -32 -31 -41 -25 -12 9 l17 21 -24 -20 c-44 -36
-109 -104 -105 -110 2 -3 -1 -1 -7 4 -11 9 -1 34 31 76 14 19 14 19 -4 5 -18
-14 -19 -13 -12 5 5 11 9 25 9 32 0 7 4 10 9 7 4 -3 8 2 8 10 0 9 4 15 9 14
11 -4 91 79 91 94 0 6 3 9 6 5 3 -3 31 20 62 50 32 31 92 83 135 116 42 33 77
62 77 64 0 5 -50 -27 -75 -49 -11 -9 -44 -35 -72 -57 -29 -23 -53 -46 -53 -51
0 -5 -7 -6 -17 -3 -11 4 -14 3 -9 -5 4 -7 2 -12 -6 -12 -19 -1 -70 -48 -64
-59 3 -5 -4 -11 -15 -14 -12 -3 -18 -10 -14 -16 3 -7 0 -8 -9 -5 -10 4 -19 -1
-23 -12 -8 -22 -28 -44 -40 -44 -4 0 -6 24 -4 52 3 47 8 57 45 92 22 22 35 35
27 31 -9 -5 -12 -4 -7 3 4 6 13 9 21 5 8 -3 15 -1 15 5 0 19 -27 20 -43 2 -8
-10 -14 -20 -12 -22 2 -2 -5 -9 -15 -16 -31 -19 -26 11 9 50 15 18 26 38 24
45 -2 6 1 14 6 18 7 4 9 -1 5 -12 -3 -11 4 -7 19 11 14 16 30 27 37 24 7 -2
-1 -16 -21 -36 -18 -18 -29 -32 -24 -32 4 0 34 25 66 55 32 30 54 55 50 55 -4
0 -16 -9 -26 -20 -19 -21 -35 -26 -35 -10 0 5 24 27 53 49 30 22 60 45 68 53
35 33 179 123 179 112 0 -13 -90 -141 -114 -163 -38 -36 -32 -45 13 -19 63 38
138 99 281 228 124 113 235 196 351 263 76 44 68 30 -12 -23 -42 -27 -89 -66
-104 -86 l-28 -37 44 26 c132 78 615 236 844 277 66 11 149 27 185 35 63 14
166 31 203 34 10 0 15 -3 12 -9z m-568 -10 c-32 -10 -198 -23 -181 -15 22 11
101 23 154 23 46 0 50 -1 27 -8z m-1137 -109 c0 -11 -110 -20 -162 -13 l-43 6
35 7 c53 10 170 10 170 0z m1512 -118 c106 -101 407 -458 396 -469 -2 -2 -64
-8 -138 -14 -148 -12 -562 -68 -735 -100 -126 -24 -304 -82 -432 -141 -48 -23
-116 -52 -151 -65 -78 -30 -143 -63 -228 -115 -36 -22 -96 -51 -132 -65 -37
-14 -96 -41 -132 -60 -41 -22 -56 -28 -40 -14 143 122 316 266 355 295 22 16
76 59 120 95 103 85 141 111 149 103 3 -3 6 -1 6 4 0 26 240 193 277 193 10 0
27 7 37 15 11 8 29 16 40 16 16 1 17 2 4 6 -9 2 -31 -3 -48 -12 -137 -71 144
134 317 230 76 43 167 95 203 116 36 22 67 39 68 39 2 0 31 -26 64 -57z
m-1570 15 c-6 -6 -55 -19 -109 -29 l-98 -17 75 -1 c89 -2 115 -13 85 -37 -11
-9 -33 -22 -50 -30 -48 -22 -2 -16 57 7 l52 20 -18 -20 c-23 -26 -96 -48 -184
-57 -48 -5 -63 -4 -58 4 4 7 15 12 24 12 9 1 46 16 82 35 l65 34 -51 1 c-84 0
-217 30 -202 45 2 2 46 10 98 17 89 12 92 13 50 19 -29 4 -4 7 75 7 90 2 116
-1 107 -10z m-52 -166 c0 -8 -3 -10 -155 -70 -55 -22 -109 -43 -119 -47 -36
-15 -6 14 36 36 39 20 215 87 231 88 4 1 7 -3 7 -7z m-130 -111 c0 -11 -110
-84 -118 -77 -3 3 -3 7 -1 9 45 36 104 77 110 77 5 0 9 -4 9 -9z m2459 -139
c17 -38 31 -82 32 -98 0 -16 4 -38 9 -49 7 -16 9 -12 10 20 l2 40 8 -34 c5
-19 9 -136 10 -260 2 -204 1 -234 -19 -305 -27 -102 -27 -166 1 -166 5 0 6 5
3 10 -8 13 5 94 13 85 4 -4 5 -49 4 -100 -4 -108 12 -138 23 -43 4 34 13 80
20 103 12 38 13 33 13 -75 0 -63 -3 -155 -7 -205 -4 -49 -4 -94 1 -100 4 -5 9
11 10 35 3 93 6 116 16 145 l10 30 1 -32 c1 -19 16 -55 35 -85 72 -114 79
-135 87 -263 5 -66 17 -181 28 -255 11 -74 30 -210 41 -303 12 -92 28 -186 35
-210 14 -41 14 -41 9 37 -4 55 -3 76 5 72 6 -4 11 -19 11 -34 0 -15 7 -46 15
-69 11 -33 12 -58 5 -125 -6 -45 -10 -89 -10 -95 0 -7 -4 -13 -10 -13 -5 0
-10 24 -10 54 0 30 -4 57 -9 60 -17 11 -20 -118 -4 -187 10 -45 12 -81 7 -105
-7 -36 -8 -35 -14 26 -12 110 -35 98 -35 -19 0 -56 -3 -73 -9 -59 -10 23 -25
26 -30 8 -22 -83 -49 -158 -57 -158 -6 0 -8 4 -5 9 7 10 -30 59 -38 50 -3 -3
-7 -23 -9 -45 -2 -23 -8 -38 -15 -36 -12 2 -13 -8 -14 -96 0 -33 -4 -42 -14
-38 -9 4 -14 -2 -15 -17 -1 -23 -7 -4 -23 66 -8 36 -26 35 -26 -2 0 -42 -16
-47 -30 -8 -8 21 -14 27 -17 17 -3 -8 -11 -29 -19 -47 -8 -17 -14 -39 -14 -50
-1 -10 -8 -36 -16 -58 -9 -22 -17 -50 -19 -62 -2 -12 -15 -37 -29 -56 -14 -19
-26 -41 -26 -50 0 -10 -4 -17 -9 -17 -13 0 -76 -127 -96 -195 -10 -33 -21 -64
-26 -69 -5 -6 1 24 12 65 12 41 22 88 23 104 2 35 62 132 106 171 16 15 30 32
29 38 0 6 -3 5 -6 -2 -2 -6 -8 -10 -13 -7 -12 7 -105 -96 -130 -145 -12 -23
-23 -57 -25 -74 -2 -17 -15 -60 -30 -96 -24 -62 -26 -59 -10 19 6 26 4 32 -6
26 -9 -6 -10 -3 -5 11 51 124 98 269 103 316 4 39 1 84 -10 131 -9 40 -21 101
-27 137 -14 79 -58 177 -112 248 -54 72 -266 227 -285 209 -2 -3 16 -19 40
-36 58 -40 164 -158 204 -229 18 -32 33 -60 33 -64 0 -4 -16 -4 -36 -1 -36 6
-37 5 -30 -20 8 -33 2 -34 -36 -2 -47 40 -72 31 -47 -17 22 -41 1 -26 -30 22
-20 32 -40 50 -52 50 -21 0 -24 -12 -9 -41 9 -16 6 -16 -25 5 -20 14 -52 30
-71 36 -29 10 -38 9 -53 -4 -22 -20 -52 -21 -45 -2 4 10 -2 12 -21 8 l-26 -5
24 27 c49 53 56 136 22 267 -21 80 -36 95 -102 107 -40 7 -65 6 -83 -1 -28
-12 -32 -11 71 -22 l56 -6 12 -62 c34 -175 39 -224 22 -245 -20 -26 -101 -67
-165 -84 l-47 -12 33 -12 33 -11 -53 -12 c-68 -14 -81 -14 -132 4 -40 14 -44
14 -103 -14 -34 -15 -87 -31 -118 -34 l-56 -5 -80 78 c-79 77 -144 120 -183
120 -11 0 -20 -4 -20 -10 0 -5 7 -10 15 -10 8 0 15 -9 15 -20 0 -24 65 -70
100 -71 25 0 25 0 2 -9 -13 -6 -42 -6 -73 0 -29 6 -53 10 -56 10 -2 0 -24 19
-48 41 -35 32 -45 49 -45 72 0 42 38 175 61 215 24 42 24 44 -7 36 -24 -6 -25
-5 -19 29 6 32 5 35 -13 30 -12 -3 -23 -17 -28 -36 l-8 -32 -3 35 c-2 19 -6
42 -9 50 -9 25 -26 -16 -29 -69 -4 -74 -104 -351 -126 -351 -5 0 3 26 17 58
15 31 31 74 36 95 6 20 15 37 20 37 5 0 8 6 7 13 -1 6 0 19 3 27 23 60 36 120
31 138 -8 33 -29 11 -37 -40 -5 -32 -9 -39 -17 -28 -8 13 -11 12 -24 -3 -7
-11 -12 -24 -9 -31 2 -6 -2 -20 -10 -31 -12 -15 -15 -16 -16 -5 -1 17 -33 -52
-43 -91 -4 -14 -17 -41 -30 -60 -12 -19 -29 -50 -37 -69 -8 -19 -27 -53 -42
-75 -15 -22 -30 -53 -34 -69 -6 -26 -5 -28 17 -21 13 4 29 8 34 9 6 0 14 6 18
11 24 31 -12 -57 -38 -95 -18 -25 -45 -70 -60 -100 -15 -29 -36 -66 -46 -80
-23 -31 -79 -177 -79 -205 1 -20 1 -19 18 1 9 12 22 29 27 39 8 12 11 2 12
-42 3 -53 49 -194 84 -256 47 -83 69 -141 75 -193 l6 -59 -32 46 c-37 56 -117
244 -132 313 -7 33 -13 44 -19 35 -11 -19 -18 -9 -20 32 -2 18 -10 41 -20 49
-11 9 -19 31 -21 53 -2 34 -4 36 -15 21 -11 -15 -13 -10 -13 37 0 30 -4 49 -8
43 -4 -6 -17 -14 -28 -18 -17 -5 -22 -15 -22 -42 0 -63 -10 -48 -18 28 -7 60
-9 68 -15 43 l-8 -30 1 35 c0 56 -1 58 -21 53 -13 -3 -22 -17 -26 -44 -4 -21
-11 -39 -15 -39 -10 0 -10 -1 -50 164 -18 71 -36 139 -41 150 -4 12 -13 41
-19 65 -6 23 -14 40 -18 36 -4 -3 -12 13 -18 37 -7 24 -26 88 -43 143 -51 161
-54 176 -53 265 4 170 44 577 72 722 11 53 4 82 -16 74 -7 -3 3 20 22 51 45
70 58 109 38 117 -16 6 -64 -20 -64 -35 0 -5 -4 -9 -10 -9 -10 0 35 80 77 137
16 20 20 34 13 38 -11 7 -55 -34 -102 -95 -16 -20 -25 -27 -21 -15 3 11 27 47
52 80 25 33 59 78 75 99 l29 39 -26 -5 c-25 -5 -25 -5 -9 18 9 13 20 24 25 24
4 0 7 6 7 14 0 9 -7 12 -19 9 -11 -3 -27 -1 -36 4 -14 8 -12 14 17 39 19 17
70 50 114 74 43 23 97 55 119 70 93 63 467 258 690 360 208 94 464 174 660
205 68 10 256 46 335 63 54 11 131 16 272 16 228 1 219 -4 167 97 -17 34 -29
63 -27 65 3 3 196 38 234 43 6 0 25 -30 43 -67z m-2529 23 c0 -8 -62 -37 -67
-31 -4 3 9 12 28 20 39 18 39 17 39 11z m-60 -195 c0 -5 -5 -10 -11 -10 -5 0
-7 5 -4 10 3 6 8 10 11 10 2 0 4 -4 4 -10z m3249 -242 c6 -18 7 -28 2 -23 -10
12 -25 55 -18 55 3 0 10 -15 16 -32z m-542 -190 c-3 -7 -5 -2 -5 12 0 14 2 19
5 13 2 -7 2 -19 0 -25z m548 -1111 c26 -164 73 -302 126 -378 17 -25 18 -37 8
-195 -6 -93 -9 -204 -6 -247 l5 -79 -43 -61 c-24 -34 -60 -80 -81 -102 -20
-22 -66 -82 -102 -133 -61 -86 -69 -93 -115 -107 -28 -8 -61 -15 -75 -15 -20
0 -23 4 -18 28 11 54 55 318 61 367 3 28 12 84 20 125 32 168 38 220 31 266
-22 154 -16 209 33 319 10 22 22 50 27 62 8 21 13 17 62 -48 29 -39 56 -77 59
-85 6 -17 33 -19 33 -1 -1 18 -44 144 -70 202 -32 71 -37 37 -6 -40 14 -36 26
-68 26 -71 0 -4 -18 16 -40 44 -37 46 -39 53 -34 96 6 38 10 45 28 43 17 -2
21 3 19 27 -1 17 3 36 9 44 16 19 34 -6 43 -61z m-3520 -113 c3 -12 13 -24 24
-27 12 -3 23 -19 30 -43 14 -49 14 -254 1 -323 -7 -38 -6 -65 4 -105 13 -47
12 -64 -4 -152 -10 -54 -26 -119 -35 -144 -15 -39 -16 -53 -5 -110 13 -68 35
-113 70 -145 26 -23 36 -14 17 17 -9 12 -23 50 -33 83 -9 33 -19 66 -21 73 -3
6 -1 12 4 12 6 0 15 -18 22 -39 6 -21 21 -50 32 -63 18 -20 20 -21 14 -3 -48
147 -47 144 -36 195 6 28 11 70 11 92 0 25 4 38 9 32 10 -10 68 -317 110 -579
17 -108 17 -110 -2 -113 -41 -8 -76 20 -134 106 -32 48 -79 112 -105 143 -45
53 -48 60 -48 113 0 61 -25 248 -41 311 -9 36 -7 49 20 117 56 139 64 193 58
391 -3 98 -2 177 3 177 5 0 12 10 16 23 7 21 8 21 11 2 2 -11 6 -30 8 -41z
m3302 -146 c-3 -8 -6 -5 -6 6 -1 11 2 17 5 13 3 -3 4 -12 1 -19z m-2290 -492
c-3 -8 0 -17 8 -20 8 -3 16 3 18 12 3 9 3 -1 0 -24 -4 -33 0 -46 22 -72 28
-33 69 -59 115 -72 17 -5 20 -9 10 -12 -47 -15 -318 -107 -334 -113 -16 -7
-17 -5 -11 16 4 12 9 36 10 52 1 16 6 32 12 36 5 3 15 21 23 39 8 20 16 29 20
22 4 -7 18 6 36 33 15 25 32 43 37 40 5 -3 7 0 5 8 -3 8 1 26 9 42 14 28 29
38 20 13z m1207 -382 c47 -4 62 -9 78 -29 24 -30 38 -32 38 -5 0 30 13 24 34
-15 23 -43 36 -45 36 -5 0 17 3 30 8 30 18 0 59 -70 72 -122 7 -32 17 -55 22
-52 4 3 6 10 3 15 -4 5 -2 9 4 9 28 0 30 -95 1 -122 -9 -9 -21 -33 -24 -54 -4
-20 -16 -53 -27 -73 -11 -20 -16 -44 -13 -56 4 -11 3 -16 -2 -12 -11 11 -36
-78 -38 -136 0 -26 -4 -47 -8 -47 -4 0 -5 -13 -2 -29 4 -16 1 -32 -5 -35 -14
-9 -14 -37 0 -34 7 2 13 -22 15 -68 3 -72 16 -163 30 -219 7 -27 6 -29 -9 -16
-10 7 -17 28 -17 45 0 17 -6 65 -14 106 -8 41 -12 78 -10 82 6 9 -24 23 -32
15 -3 -3 -8 -24 -10 -47 -2 -22 -8 -49 -14 -60 -5 -10 -10 -43 -10 -72 -1 -41
-3 -49 -11 -35 -14 24 -45 22 -52 -4 -3 -11 -3 -36 0 -55 4 -27 2 -34 -11 -34
-19 0 -30 -40 -23 -83 5 -29 5 -30 -5 -9 -8 15 -19 22 -32 20 -17 -2 -21 -11
-22 -43 -2 -59 -2 -59 -22 -34 -28 34 -55 19 -50 -26 3 -23 0 -35 -8 -35 -17
0 -22 19 -16 58 3 20 0 32 -7 32 -6 0 -11 12 -12 28 0 23 -2 24 -8 8 -5 -14
-10 -16 -15 -8 -14 23 -23 12 -35 -40 -13 -59 -36 -103 -28 -55 3 17 0 27 -8
27 -22 0 -38 -30 -40 -75 -1 -53 -15 -74 -15 -24 0 19 -4 40 -8 47 -12 18 -42
4 -42 -19 0 -10 -4 -19 -10 -19 -5 0 -10 5 -10 10 0 6 -7 10 -15 10 -20 0 -45
-52 -45 -96 0 -68 -15 -28 -19 49 0 15 -5 27 -10 27 -5 0 -12 -12 -14 -27 -3
-16 -5 -1 -4 32 0 33 -3 67 -7 76 -11 24 30 119 69 163 l35 38 0 -41 c0 -53
20 -54 55 -4 l25 38 0 -42 c0 -37 13 -63 26 -51 7 8 37 121 38 146 1 14 -8 29
-24 38 -24 15 -28 14 -93 -26 -91 -55 -109 -60 -73 -22 35 38 30 48 -18 31
-26 -9 -38 -10 -49 -1 -11 9 -23 5 -57 -20 -40 -30 -43 -31 -38 -10 4 12 2 25
-3 28 -13 7 -57 -20 -88 -55 -16 -18 -21 -21 -17 -8 24 72 11 96 -16 30 l-16
-38 -12 33 c-16 42 -42 41 -63 -3 -9 -19 -21 -35 -27 -35 -6 0 -25 16 -42 36
-20 23 -38 34 -52 32 -20 -3 -21 -8 -19 -96 3 -116 24 -168 84 -211 23 -17 47
-31 53 -31 18 -1 50 -51 38 -59 -6 -4 -12 -21 -14 -38 -2 -35 -18 -35 -19 0 0
21 -1 21 -9 2 -7 -17 -9 -17 -9 -2 -1 24 -21 21 -21 -4 0 -16 -4 -19 -20 -14
-15 5 -21 0 -26 -19 -9 -39 -24 -31 -24 13 0 41 -16 63 -30 41 -5 -7 -10 2
-14 24 -4 20 -11 36 -16 36 -6 0 -10 8 -10 18 0 14 -2 15 -9 3 -8 -12 -11 -9
-16 12 -6 22 -10 25 -21 16 -11 -9 -14 -6 -14 17 0 31 -6 42 -33 63 -15 12
-17 12 -11 -3 3 -9 2 -16 -3 -16 -6 0 -15 18 -22 40 -7 26 -16 38 -23 34 -8
-5 -9 -1 -5 10 10 27 -13 96 -29 89 -8 -3 -14 1 -14 10 0 8 -6 20 -14 26 -15
13 -31 -1 -38 -34 -3 -13 -11 0 -23 40 -9 33 -22 65 -27 71 -15 19 -13 145 3
154 11 7 11 13 1 32 -7 13 -12 37 -11 53 2 38 -17 85 -34 85 -9 0 -23 37 -41
108 -40 154 -47 194 -41 223 5 23 11 26 43 26 21 0 52 8 70 17 27 14 32 22 32
51 0 18 4 36 9 40 6 3 7 -10 4 -32 l-6 -37 28 22 c15 12 39 37 52 54 16 23 23
27 23 14 0 -9 5 -14 10 -11 6 4 17 2 24 -4 10 -8 23 -5 51 14 20 14 71 43 113
65 75 38 77 38 112 23 19 -9 46 -17 60 -19 14 -2 37 -7 52 -10 20 -5 29 -2 34
10 8 20 43 20 68 1 11 -8 28 -13 38 -9 9 3 27 0 38 -6 25 -13 57 5 41 24 -14
18 -25 80 -12 72 6 -4 11 -15 11 -24 0 -10 7 -27 15 -39 13 -19 18 -20 52 -8
21 7 54 16 73 19 50 10 22 -6 -80 -45 -83 -31 -90 -32 -260 -35 -267 -4 -290
-8 -405 -63 -55 -26 -129 -61 -163 -77 -78 -35 -107 -70 -98 -120 5 -21 18
-42 36 -56 17 -12 30 -27 30 -33 0 -21 89 -55 163 -61 84 -7 241 -37 312 -60
40 -13 91 -16 260 -14 276 2 405 18 502 64 89 43 179 110 230 173 21 26 51 59
66 73 22 20 30 37 34 75 l5 50 -27 -40 c-15 -22 -33 -43 -39 -47 -17 -12 -49
-9 -76 7 -37 21 -81 42 -118 56 -24 9 -31 16 -26 28 16 39 22 89 15 121 -7 33
-8 31 -15 -30 -10 -89 -18 -100 -70 -100 -23 0 -65 -7 -92 -15 -27 -8 -52 -15
-55 -15 -3 0 -4 28 -3 63 3 56 2 58 -6 22 -5 -22 -9 -54 -9 -70 -1 -28 -6 -33
-62 -55 -34 -13 -95 -43 -137 -67 -83 -47 -91 -49 -177 -28 -33 8 -100 18
-150 21 -109 8 -140 -1 -317 -85 -70 -34 -135 -61 -143 -61 -28 0 -95 49 -95
69 0 63 23 78 235 159 205 78 186 75 390 67 215 -9 238 -4 440 95 66 32 145
63 174 69 99 21 195 -10 206 -66 14 -68 41 -118 68 -127 34 -12 42 -4 24 26
-8 12 -20 46 -26 73 -16 65 -43 92 -111 112 -47 14 -183 21 -217 11 -6 -2 -13
2 -14 7 -5 13 91 46 111 39 8 -3 41 -8 74 -10z m-1924 -46 c0 -5 -4 -8 -10 -8
-5 0 -10 10 -10 23 0 18 2 19 10 7 5 -8 10 -18 10 -22z m-23 -70 c-3 -8 -6 -5
-6 6 -1 11 2 17 5 13 3 -3 4 -12 1 -19z m2819 -154 c-4 -14 -9 -24 -12 -21 -3
2 -2 17 2 31 3 15 9 25 11 22 3 -3 2 -17 -1 -32z m-925 -48 c91 -28 118 -44
112 -66 -4 -15 -14 -20 -42 -20 -34 0 -41 -5 -70 -50 -35 -54 -46 -58 -92 -35
-28 15 -32 14 -58 -4 -15 -11 -33 -27 -40 -35 -6 -8 -40 -17 -73 -21 -34 -4
-78 -13 -97 -20 -31 -11 -15 -12 114 -8 99 4 147 2 140 -4 -15 -16 -141 -32
-340 -44 -99 -6 -198 -15 -220 -19 -29 -7 -44 -5 -55 5 -8 7 -44 27 -79 44
-60 28 -62 30 -36 37 15 4 81 4 147 0 84 -5 118 -4 113 3 -3 6 -12 11 -19 11
-8 0 -47 11 -87 25 -62 20 -222 54 -263 55 -22 1 26 22 92 41 57 16 78 17 152
9 182 -21 232 -16 412 44 221 74 220 74 289 52z m-1594 -108 c-3 -8 -6 -5 -6
6 -1 11 2 17 5 13 3 -3 4 -12 1 -19z m2299 -185 c-11 -11 -17 4 -9 23 7 18 8
18 11 1 2 -10 1 -21 -2 -24z m-289 -15 c-3 -8 -6 -5 -6 6 -1 11 2 17 5 13 3
-3 4 -12 1 -19z m-20 -125 c-3 -10 -5 -2 -5 17 0 19 2 27 5 18 2 -10 2 -26 0
-35z m-10 -85 c-3 -8 -6 -5 -6 6 -1 11 2 17 5 13 3 -3 4 -12 1 -19z m-2109
-113 l0 -40 -13 50 c-18 69 -18 99 0 60 8 -16 14 -48 13 -70z m306 79 c3 -8 2
-12 -4 -9 -6 3 -10 10 -10 16 0 14 7 11 14 -7z m2086 -244 c0 -16 -4 -30 -10
-30 -11 0 -14 43 -3 53 11 12 13 8 13 -23z m-1992 -90 c0 -8 -6 1 -13 20 -7
19 -13 42 -13 50 0 8 6 -1 13 -20 7 -19 13 -42 13 -50z m1942 -41 c-33 -103
-52 -149 -61 -149 -4 0 4 30 20 68 15 37 33 86 41 110 7 23 15 40 17 38 2 -2
-5 -32 -17 -67z m-1635 -59 c3 -5 1 -10 -4 -10 -6 0 -11 5 -11 10 0 6 2 10 4
10 3 0 8 -4 11 -10z m801 -27 c-10 -10 -19 5 -10 18 6 11 8 11 12 0 2 -7 1
-15 -2 -18z m-1196 -37 c0 -6 -7 -2 -15 8 -8 11 -15 25 -15 30 0 6 7 2 15 -8
8 -11 15 -25 15 -30z m2144 -253 c-13 -269 -10 -842 5 -943 17 -112 64 -274
101 -351 32 -67 79 -133 87 -125 3 3 0 12 -6 20 -12 14 -53 137 -48 143 2 1
32 -17 67 -42 39 -26 67 -39 71 -33 13 21 28 -3 23 -35 -16 -85 -47 -162 -94
-229 -212 -304 -261 -348 -490 -436 -41 -16 -97 -43 -125 -60 -196 -120 -229
-130 -466 -142 -92 -4 -183 -13 -203 -19 -89 -27 -103 -31 -118 -31 -8 0 -44
-9 -78 -20 -34 -11 -66 -20 -70 -20 -14 0 -155 320 -305 691 -34 85 -72 173
-82 195 -11 21 -44 99 -73 172 -28 72 -56 134 -60 137 -13 8 70 -222 134 -372
31 -72 56 -134 56 -137 0 -18 173 -411 236 -538 l74 -148 -35 0 c-35 0 -195
77 -278 133 -21 14 -57 28 -80 31 -264 34 -343 52 -407 94 -14 9 -55 32 -91
52 -85 47 -198 139 -204 165 -2 11 -11 61 -20 110 -9 50 -27 145 -41 212 -13
67 -24 129 -24 136 0 9 15 17 38 21 21 3 59 21 85 41 l45 35 11 -68 c6 -37 13
-98 16 -137 10 -113 16 -146 28 -142 8 2 12 208 14 748 1 409 5 781 8 827 l7
82 43 -37 c54 -48 169 -182 162 -189 -3 -3 -31 20 -61 52 -41 43 -58 56 -67
47 -8 -8 -6 -18 7 -39 14 -20 15 -29 6 -32 -6 -2 -12 -9 -12 -16 0 -25 61 -98
93 -111 50 -21 55 -1 11 40 -34 31 -36 35 -14 29 14 -5 39 -8 55 -9 44 0 61
-14 39 -30 -20 -14 -27 -103 -14 -175 5 -28 5 -46 -1 -48 -6 -2 -4 -11 3 -20
11 -13 11 -14 -2 -10 -8 3 -15 15 -15 28 0 13 -6 25 -12 27 -13 5 -18 -14 -15
-50 1 -10 -3 -15 -8 -12 -6 3 -10 17 -10 30 0 18 -4 23 -15 19 -25 -10 -17
-51 16 -89 l31 -35 -28 10 c-16 6 -34 16 -42 22 -9 8 -16 8 -25 -1 -9 -10 -8
-16 8 -28 14 -11 16 -17 8 -20 -7 -3 -13 -9 -13 -14 0 -11 84 -49 108 -49 15
0 17 -12 17 -84 0 -77 12 -116 34 -116 4 0 7 56 7 125 -1 69 2 125 7 125 4 0
7 -8 7 -18 0 -10 5 -23 11 -29 7 -7 8 -17 1 -29 -12 -24 2 -152 18 -167 10 -9
14 -9 17 0 2 7 12 9 21 7 12 -4 10 0 -5 13 -19 15 -22 28 -22 77 1 48 3 56 12
40 5 -10 19 -32 30 -48 l20 -28 -24 11 c-22 11 -22 10 4 -13 31 -29 24 -35
-11 -10 -27 19 -28 14 -2 -16 11 -12 17 -27 14 -32 -9 -14 16 -38 39 -38 11 0
17 -3 14 -7 -8 -7 47 -43 66 -43 7 0 19 -10 27 -21 8 -12 25 -32 38 -45 28
-30 27 -30 -42 1 -82 36 -68 21 22 -24 49 -24 76 -43 74 -52 -2 -8 0 -11 4 -7
4 4 29 -15 56 -42 54 -55 139 -108 229 -145 82 -33 74 -17 -13 27 -40 19 -97
54 -127 76 -62 47 -196 190 -166 178 11 -5 27 -9 35 -10 18 -1 26 -7 88 -62
71 -61 193 -146 200 -139 4 3 -14 23 -38 43 -67 54 -123 114 -113 121 22 16
11 39 -24 54 -28 12 -31 14 -10 10 40 -8 33 5 -16 26 -23 10 -48 26 -56 35
-12 14 -11 16 8 16 11 0 21 -6 21 -12 0 -10 2 -10 9 0 6 11 12 10 26 -4 11
-11 32 -18 55 -18 32 0 37 -2 33 -20 -4 -19 -3 -19 7 -4 12 20 -12 78 -33 78
-9 0 -8 3 1 9 11 7 10 9 -3 15 -9 3 -13 10 -10 16 3 5 -1 10 -9 10 -8 0 -18 5
-22 11 -5 8 1 10 18 6 48 -12 173 -17 203 -8 17 5 22 10 13 10 -10 1 -18 5
-18 10 0 5 8 12 18 14 9 3 1 6 -18 7 -19 1 -46 6 -60 11 -25 9 -25 9 3 5 15
-2 30 1 33 5 3 5 -13 9 -35 9 -22 0 -43 5 -46 10 -4 6 -11 7 -17 4 -6 -4 -8 1
-3 15 4 14 2 21 -7 21 -10 0 -9 3 2 10 12 7 8 10 -15 10 -29 1 -30 1 -6 11 13
5 35 21 48 35 12 14 23 20 23 15 0 -14 36 -14 61 -1 21 12 26 39 7 41 -42 4
102 27 172 28 77 0 83 -1 66 -14 -13 -10 -43 -15 -84 -15 -55 0 -63 -2 -60
-17 2 -12 14 -19 38 -21 l35 -4 -32 -13 c-18 -8 -33 -19 -33 -25 0 -15 34 -12
91 6 54 18 83 11 31 -7 -31 -11 -43 -34 -21 -41 15 -5 1 -98 -15 -98 -16 0
-71 -58 -64 -66 4 -3 29 12 57 33 38 29 50 45 50 65 1 29 37 135 54 156 14 18
2 25 -21 13 -40 -21 -43 -10 -6 24 41 39 46 42 38 20 -12 -31 110 -115 167
-115 20 0 17 4 -18 21 -23 11 -63 39 -89 62 -41 36 -44 42 -28 48 29 12 34 10
34 -9 0 -10 10 -28 23 -39 54 -50 134 -69 131 -31 -1 10 8 19 22 22 32 8 31
26 -2 26 -15 0 -44 10 -65 22 -50 28 -64 14 -21 -22 22 -18 30 -30 22 -35 -7
-4 -27 7 -48 26 -21 19 -41 37 -45 40 -4 3 39 18 97 32 172 43 310 118 356
193 12 19 30 34 40 34 22 0 35 16 20 25 -6 4 3 24 22 51 29 41 62 75 44 46
-13 -22 -26 -120 -18 -141 6 -17 11 -5 22 56 11 61 15 72 20 49 3 -16 11 -31
18 -34 9 -3 12 13 12 57 0 65 -4 72 -27 44 -13 -17 -13 -16 -4 2 5 11 18 28
28 38 19 17 20 16 21 -18 2 -44 18 -75 38 -75 11 0 14 5 9 18 -4 9 -10 36 -12
60 -3 23 -9 42 -13 42 -3 0 55 61 129 135 75 74 140 135 145 135 4 0 4 -79 0
-177z m-320 33 c-3 -9 -13 -16 -22 -16 -13 0 -12 3 3 20 20 23 29 21 19 -4z
m-184 -55 c-23 -45 -35 -55 -20 -16 27 68 33 79 37 68 2 -6 -5 -30 -17 -52z
m-1352 -38 c-7 -9 -18 -32 -24 -52 l-12 -36 -1 35 c-1 38 24 84 40 74 6 -3 5
-12 -3 -21z m-178 -4 c7 -11 9 -23 6 -26 -8 -9 -36 17 -36 33 0 21 18 17 30
-7z m280 -19 c0 -5 -4 -10 -10 -10 -14 0 -39 -52 -46 -99 -4 -23 -11 -44 -15
-47 -11 -7 -11 -6 2 58 14 66 35 108 54 108 8 0 15 -4 15 -10z m16 -80 c-9
-22 -16 -55 -17 -73 0 -17 -6 -50 -14 -72 l-13 -40 -1 47 c-1 62 17 149 37
171 23 26 26 13 8 -33z m815 -106 c-14 -77 -28 -109 -65 -143 -33 -31 -33 -23
3 42 16 28 37 80 47 115 9 34 19 60 22 58 2 -3 -1 -35 -7 -72z m-755 -34 c0
-38 -3 -64 -8 -57 -10 15 -10 127 0 127 4 0 7 -31 8 -70z m-61 20 c3 -5 1 -10
-4 -10 -6 0 -11 5 -11 10 0 6 2 10 4 10 3 0 8 -4 11 -10z m-245 -27 c0 -5 -5
-15 -10 -23 -8 -12 -10 -11 -10 8 0 12 5 22 10 22 6 0 10 -3 10 -7z m414 -15
c10 -38 6 -45 -9 -18 -17 29 -18 40 -6 40 5 0 11 -10 15 -22z m406 -18 c-32
-28 -38 -25 -10 5 13 14 26 23 28 20 3 -3 -5 -14 -18 -25z m150 -15 c-6 -15
-20 -39 -32 -54 -11 -14 -19 -21 -16 -16 2 6 14 32 27 58 24 51 39 60 21 12z
m-929 -113 c-8 -12 -10 0 -10 48 l1 65 9 -48 c6 -31 6 -54 0 -65z m109 -12
c25 -22 40 -40 33 -40 -7 0 -24 11 -39 25 -21 19 -29 22 -35 13 -11 -17 -24
-2 -33 35 -6 25 -5 27 11 18 10 -6 38 -29 63 -51z m-150 -2 c0 -18 -2 -20 -9
-8 -6 8 -7 18 -5 22 9 14 14 9 14 -14z m307 -34 c-3 -3 -12 -4 -19 -1 -8 3 -5
6 6 6 11 1 17 -2 13 -5z m-294 -24 c3 -11 1 -18 -4 -14 -5 3 -9 12 -9 20 0 20
7 17 13 -6z m447 -505 c0 -8 -2 -15 -4 -15 -2 0 -6 7 -10 15 -3 8 -1 15 4 15
6 0 10 -7 10 -15z m1890 -255 l25 -20 -32 11 c-18 6 -33 15 -33 20 0 14 13 10
40 -11z m-2954 -19 c-3 -4 -33 -11 -66 -15 -34 -4 -69 -10 -78 -13 -9 -3 -14
-3 -10 2 17 18 165 44 154 26z m1384 -1051 c-14 -4 -36 -8 -50 -8 -23 -1 -23
0 -5 8 11 5 34 8 50 8 29 0 29 0 5 -8z"/>
<path d="M4763 8131 c-66 -26 -64 -35 2 -10 33 12 62 23 64 25 10 9 -28 1 -66
-15z"/>
<path d="M5368 7733 c7 -3 16 -2 19 1 4 3 -2 6 -13 5 -11 0 -14 -3 -6 -6z"/>
<path d="M3364 7578 l-19 -23 23 19 c21 18 27 26 19 26 -2 0 -12 -10 -23 -22z"/>
<path d="M3270 7509 l-35 -30 38 26 c33 24 43 35 34 35 -1 0 -18 -14 -37 -31z"/>
<path d="M3029 7337 c-91 -67 -215 -162 -275 -212 -117 -96 -355 -325 -339
-325 6 0 44 33 86 73 183 176 383 343 642 535 31 23 57 45 57 47 0 7 7 12
-171 -118z"/>
<path d="M2529 7353 c-13 -16 -12 -17 4 -4 9 7 17 15 17 17 0 8 -8 3 -21 -13z"/>
<path d="M2967 6784 c-4 -4 -54 -13 -112 -20 -58 -7 -109 -15 -113 -18 -4 -2
-33 -40 -64 -83 -54 -74 -143 -264 -135 -288 2 -5 9 0 16 13 6 12 16 22 22 22
11 0 -14 -43 -45 -77 -10 -13 -16 -26 -12 -30 4 -4 29 17 56 47 28 30 47 47
44 38 -7 -21 9 -24 24 -5 6 7 39 26 74 42 35 17 65 33 68 36 13 16 58 32 109
39 58 8 121 -1 177 -26 17 -7 57 -16 90 -20 32 -4 84 -14 114 -24 30 -10 76
-20 101 -22 l46 -5 -30 75 c-16 42 -34 115 -40 164 -6 48 -15 88 -19 88 -12 0
-10 -154 2 -186 6 -15 9 -29 6 -31 -2 -3 -12 20 -22 51 -10 30 -21 53 -26 50
-5 -4 -7 -13 -4 -23 5 -12 2 -11 -9 3 -8 11 -15 23 -15 26 0 7 -105 79 -186
127 -53 32 -105 48 -117 37z m406 -321 c8 -18 12 -33 7 -33 -4 0 -13 14 -19
31 -19 54 -14 54 12 2z"/>
<path d="M3670 6642 c0 -17 11 -61 25 -98 14 -36 22 -70 19 -75 -3 -5 4 -9 14
-9 11 0 22 -6 25 -13 6 -16 67 -47 92 -47 9 0 15 6 13 15 -5 24 -101 143 -125
154 -11 5 -26 27 -33 48 -17 53 -30 64 -30 25z"/>
<path d="M3870 6619 c0 -29 46 -104 83 -135 18 -14 56 -48 85 -75 28 -27 60
-48 70 -47 36 3 52 -2 52 -17 0 -12 17 -15 93 -15 50 0 138 -8 193 -17 88 -15
107 -15 143 -3 38 12 45 11 89 -8 63 -28 124 -36 167 -22 20 7 55 13 78 13 52
2 52 19 -2 32 -21 6 -43 13 -46 17 -4 4 -13 4 -21 1 -8 -3 -14 1 -14 11 0 19
5 20 32 5 11 -6 22 -8 25 -5 6 6 -63 76 -76 76 -6 0 -33 20 -61 45 -28 24 -64
52 -80 60 -17 9 -30 22 -30 30 0 18 -45 20 -86 5 -15 -6 -43 -13 -62 -16 -19
-3 -46 -10 -60 -15 -14 -5 -45 -14 -71 -19 -25 -6 -63 -18 -84 -27 -37 -16
-38 -16 -65 10 -16 15 -35 27 -44 27 -8 0 -21 7 -28 15 -13 16 -40 21 -40 8 0
-5 14 -32 30 -62 17 -30 28 -56 26 -58 -2 -2 -23 26 -46 62 -43 66 -67 79 -63
34 3 -23 2 -23 -22 6 -17 21 -34 30 -60 32 -33 2 -35 0 -29 -20 12 -37 -22 -2
-46 49 -24 49 -30 54 -30 23z"/>
<path d="M3680 6490 c0 -5 5 -10 11 -10 5 0 7 5 4 10 -3 6 -8 10 -11 10 -2 0
-4 -4 -4 -10z"/>
<path d="M2870 6480 c0 -5 5 -10 10 -10 6 0 10 5 10 10 0 6 -4 10 -10 10 -5 0
-10 -4 -10 -10z"/>
<path d="M3191 6412 c-7 -2 19 -33 57 -67 51 -48 78 -82 105 -138 46 -92 47
-110 5 -71 -18 17 -62 50 -97 73 -52 33 -78 44 -136 52 -39 5 -118 27 -176 49
-57 22 -115 40 -128 40 -16 0 -46 -20 -85 -58 -34 -31 -72 -64 -86 -73 -22
-14 -25 -25 -31 -105 -5 -67 -4 -97 7 -123 13 -30 12 -35 -3 -47 -17 -12 -16
-13 4 -14 51 0 69 16 82 73 l12 56 67 7 c80 8 391 -2 447 -16 22 -5 47 -18 56
-29 9 -11 19 -17 23 -14 3 4 6 -1 6 -10 0 -10 -6 -14 -14 -11 -8 3 -18 -7 -27
-28 -7 -18 -29 -51 -49 -72 -19 -22 -29 -36 -22 -32 6 4 12 5 12 1 0 -6 -70
-99 -97 -129 -13 -14 -14 -17 -3 -12 8 4 4 -1 -10 -13 -14 -11 -52 -34 -85
-50 -33 -17 -54 -31 -47 -31 7 0 39 14 72 30 70 35 83 38 46 9 -40 -31 -24
-35 20 -5 27 18 40 22 45 14 6 -9 11 -8 23 1 9 8 16 10 16 5 0 -5 7 -1 15 10
13 18 14 17 12 -4 -1 -13 -21 -45 -45 -71 -24 -27 -39 -49 -34 -49 22 0 228
250 253 307 10 24 23 43 29 43 5 0 10 8 11 18 0 14 2 14 8 -3 9 -22 -7 -67
-20 -59 -5 3 -9 0 -9 -5 0 -12 -67 -112 -125 -188 -19 -25 -35 -50 -35 -55 0
-10 165 193 181 223 12 23 29 25 29 4 0 -20 10 -19 27 3 12 15 13 13 8 -18 -6
-35 -6 -35 9 -10 8 14 18 42 21 63 6 35 24 52 26 25 0 -7 4 -4 9 7 8 19 9 18
9 -4 1 -38 11 -19 32 61 37 144 19 238 -62 318 -26 26 -58 50 -71 53 -21 6
-20 4 7 -21 71 -65 116 -169 114 -265 l-2 -52 -7 60 c-10 80 -45 165 -88 215
-38 45 -102 90 -127 90 -9 0 -30 8 -48 17 -33 17 -114 32 -136 25z m-366 -198
c-33 -19 -63 -41 -67 -47 -5 -7 -8 -8 -8 -1 0 17 55 64 86 74 51 15 49 11 -11
-26z m317 -2 c14 -9 36 -29 46 -43 19 -24 20 -27 4 -58 -14 -31 -18 -33 -51
-27 -20 3 -73 11 -118 18 l-81 13 24 40 c13 22 24 48 24 58 0 14 10 17 63 17
42 0 70 -6 89 -18z m88 -13 c19 -17 51 -39 70 -49 37 -20 90 -63 90 -74 0 -3
-7 -6 -15 -6 -8 0 -15 -5 -15 -12 0 -6 -30 18 -67 54 -38 37 -81 78 -98 92
-19 16 -25 25 -15 26 8 0 31 -14 50 -31z m29 -100 c26 -21 24 -33 -3 -23 -9 3
-16 13 -16 22 0 12 -4 12 -21 -4 -22 -19 -22 -19 -8 4 17 27 18 27 48 1z m66
-159 c-19 -42 -33 -50 -16 -9 5 13 12 33 15 43 4 10 9 16 13 13 3 -4 -2 -25
-12 -47z m-23 8 c-8 -8 -9 -4 -5 13 4 13 8 18 11 10 2 -7 -1 -18 -6 -23z m153
23 c3 -5 1 -12 -5 -16 -5 -3 -10 1 -10 9 0 18 6 21 15 7z m132 -23 c-3 -7 -5
-2 -5 12 0 14 2 19 5 13 2 -7 2 -19 0 -25z m-406 -208 c-13 -11 -28 -20 -35
-20 -6 1 0 10 13 20 13 11 28 20 35 20 6 -1 0 -10 -13 -20z"/>
<path d="M2581 6334 c-22 -28 -28 -50 -11 -39 11 7 43 65 36 65 -3 0 -14 -12
-25 -26z"/>
<path d="M4843 6258 c-40 -13 -44 -32 -5 -21 15 5 52 8 84 8 44 0 54 3 46 13
-12 14 -80 14 -125 0z"/>
<path d="M3944 6228 c-37 -32 -77 -105 -68 -120 3 -4 20 -8 38 -8 46 0 50 -8
20 -47 -24 -32 -36 -95 -20 -110 3 -4 6 6 6 20 0 17 12 40 30 59 17 17 30 36
30 43 0 21 -25 45 -54 53 l-28 8 46 67 c25 37 44 67 41 67 -2 0 -21 -15 -41
-32z"/>
<path d="M4000 6235 c-13 -14 -22 -27 -19 -29 2 -2 14 10 27 25 29 36 24 38
-8 4z"/>
<path d="M4220 6243 c0 -5 5 -14 12 -21 9 -9 -1 -12 -45 -11 -56 2 -117 -15
-117 -32 0 -5 -6 -9 -13 -9 -19 0 -47 -33 -47 -55 0 -17 1 -17 20 0 25 23 25
19 0 -33 -25 -52 -35 -96 -26 -119 6 -15 8 -15 16 -3 5 8 7 23 4 32 -3 9 1 30
9 45 8 15 12 33 10 40 -2 6 1 14 6 18 7 4 8 -1 4 -12 -6 -17 -5 -17 15 1 27
24 28 16 2 -34 -30 -59 -43 -131 -30 -165 16 -41 50 -62 50 -30 0 8 8 15 18
15 18 0 40 19 57 49 9 16 -8 8 -37 -17 -21 -18 -22 -12 -6 22 6 14 20 28 31
32 30 10 89 52 123 90 36 39 24 37 241 25 116 -7 150 -13 190 -32 56 -27 69
-41 83 -90 10 -37 40 -74 40 -50 0 7 4 10 9 6 5 -3 12 -1 16 5 3 5 21 10 38
10 34 0 65 14 51 23 -5 2 -28 8 -52 12 -37 6 -44 11 -49 36 -7 38 -5 45 15 41
12 -3 10 4 -10 30 -15 20 -58 50 -109 75 -45 24 -94 54 -108 66 -23 21 -29 23
-51 11 -14 -8 -54 -14 -90 -14 -60 0 -212 27 -252 44 -10 5 -18 4 -18 -1z
m-50 -73 c-35 -24 -54 -31 -30 -11 14 11 30 21 35 21 6 0 3 -5 -5 -10z m40 -6
c0 -10 -122 -145 -127 -140 -11 10 46 98 77 120 35 25 50 31 50 20z m40 -10
c0 -26 -28 -76 -65 -119 -19 -22 -35 -43 -35 -46 0 -4 -6 -9 -14 -12 -14 -6
53 124 79 154 8 8 15 21 15 27 0 7 5 12 10 12 6 0 10 -7 10 -16z m364 -18 c25
-19 43 -36 41 -38 -3 -2 -25 -2 -51 2 -47 5 -62 22 -49 58 6 17 10 16 59 -22z"/>
<path d="M4883 6224 c3 -4 25 -10 49 -14 38 -7 41 -7 23 6 -18 13 -85 21 -72
8z"/>
<path d="M3723 6044 c-20 -21 -16 -42 3 -22 9 9 15 21 13 26 -2 6 -9 4 -16 -4z"/>
<path d="M5018 6013 c7 -3 16 -2 19 1 4 3 -2 6 -13 5 -11 0 -14 -3 -6 -6z"/>
<path d="M3729 5941 c-31 -30 -44 -51 -32 -51 9 0 67 70 61 74 -1 2 -15 -8
-29 -23z"/>
<path d="M4699 5925 c-8 -9 -49 -33 -90 -55 -41 -22 -70 -40 -65 -40 19 0 153
70 170 89 22 24 8 29 -15 6z"/>
<path d="M2724 5903 c13 -34 50 -80 81 -101 50 -35 51 -26 3 26 -25 27 -51 58
-57 70 -14 26 -36 30 -27 5z"/>
<path d="M4990 5901 c0 -5 10 -12 23 -15 12 -3 43 -12 70 -20 51 -16 64 -12
20 5 -58 24 -113 38 -113 30z"/>
<path d="M3712 5829 c-23 -23 -40 -44 -38 -46 5 -5 23 12 65 60 36 40 22 33
-27 -14z"/>
<path d="M4771 5793 c-35 -41 -55 -70 -44 -65 23 13 96 91 112 121 22 40 -4
19 -68 -56z"/>
<path d="M2690 5853 c0 -14 72 -79 107 -97 18 -9 45 -16 60 -15 27 1 27 1 -4
9 -34 8 -39 10 -115 73 -27 21 -48 35 -48 30z"/>
<path d="M4230 5842 c0 -7 19 -21 74 -51 28 -16 52 -26 111 -46 11 -3 -18 14
-64 39 -46 24 -88 49 -94 55 -13 13 -27 14 -27 3z"/>
<path d="M4805 5778 c-46 -45 -63 -68 -52 -68 19 0 112 81 128 111 20 38 -9
21 -76 -43z"/>
<path d="M4948 5807 c24 -12 62 -40 84 -62 41 -39 41 -39 18 -6 -25 36 -104
91 -129 91 -9 0 3 -11 27 -23z"/>
<path d="M2671 5748 c-44 -138 -75 -269 -49 -208 15 37 68 233 64 238 -2 2 -9
-12 -15 -30z"/>
<path d="M3700 5724 c-55 -54 -61 -68 -15 -38 24 16 80 83 74 89 -2 1 -29 -21
-59 -51z"/>
<path d="M4445 5770 c-6 -11 25 -13 155 -10 133 3 114 19 -22 20 -74 0 -129
-4 -133 -10z"/>
<path d="M4160 5732 c0 -12 194 -257 212 -268 22 -14 -30 62 -110 159 -100
123 -102 124 -102 109z"/>
<path d="M3696 5634 c-38 -41 -66 -77 -63 -80 8 -9 136 126 137 144 0 16 5 20
-74 -64z"/>
<path d="M4895 5665 c37 -61 68 -105 72 -105 9 0 -49 95 -70 115 l-20 20 18
-30z"/>
<path d="M2925 5663 c-22 -8 -80 -25 -128 -38 -85 -22 -105 -30 -96 -39 10 -9
189 37 244 64 63 30 49 40 -20 13z"/>
<path d="M4275 5643 c65 -101 145 -194 145 -168 0 12 -143 195 -152 195 -6 0
-2 -12 7 -27z"/>
<path d="M3728 5592 c-21 -26 -58 -73 -84 -105 -26 -31 -44 -60 -40 -64 8 -8
82 71 125 132 63 90 62 117 -1 37z"/>
<path d="M4861 5599 c20 -24 50 -66 68 -94 17 -27 31 -44 31 -37 0 18 -103
165 -120 170 -8 3 1 -15 21 -39z"/>
<path d="M2930 5613 c-8 -3 -26 -10 -39 -15 -13 -5 -22 -11 -19 -13 3 -3 25 3
49 14 40 18 46 28 9 14z"/>
<path d="M3699 5472 c-90 -91 -126 -138 -115 -149 10 -10 206 207 206 228 0 5
-1 9 -2 9 -2 0 -42 -40 -89 -88z"/>
<path d="M3446 5495 c-23 -51 -76 -240 -76 -272 0 -7 4 -13 10 -13 13 0 106
327 96 337 -2 3 -16 -21 -30 -52z"/>
<path d="M2655 5495 c-4 -25 -5 -48 -2 -51 2 -3 8 16 12 41 3 26 4 49 2 52 -3
3 -9 -16 -12 -42z"/>
<path d="M3671 5370 c-72 -69 -99 -100 -85 -100 16 0 204 180 204 195 0 15
-26 -5 -119 -95z"/>
<path d="M3491 5398 c-1 -23 20 -68 32 -68 5 0 4 7 -3 15 -7 8 -10 24 -7 35 3
11 1 18 -3 15 -5 -3 -11 1 -13 7 -3 8 -6 6 -6 -4z"/>
<path d="M3680 5317 c-88 -75 -118 -107 -101 -107 37 0 188 134 179 160 -2 6
-37 -17 -78 -53z"/>
<path d="M4971 5295 c0 -16 4 -50 8 -75 l8 -45 1 55 c0 30 -3 64 -8 75 -7 17
-9 16 -9 -10z"/>
<path d="M3745 5283 c-10 -14 -36 -43 -59 -64 -29 -27 -36 -39 -24 -39 31 0
118 91 118 125 0 14 -20 2 -35 -22z"/>
<path d="M3767 5213 c-4 -3 -7 -11 -7 -17 0 -6 5 -5 12 2 6 6 9 14 7 17 -3 3
-9 2 -12 -2z"/>
<path d="M3997 5184 c-5 -5 25 -14 67 -20 55 -9 84 -19 112 -40 33 -25 36 -26
26 -7 -19 35 -78 65 -140 70 -31 3 -61 1 -65 -3z"/>
<path d="M3373 5144 c-28 -13 -57 -32 -65 -41 -15 -19 -13 -18 70 25 57 30 74
43 55 42 -5 -1 -31 -12 -60 -26z"/>
<path d="M3499 5149 c13 -5 39 -23 58 -39 58 -51 80 -50 228 14 74 31 66 32
-57 4 l-97 -21 -52 26 c-28 15 -63 27 -77 26 l-27 0 24 -10z"/>
<path d="M2375 5070 c4 -19 40 -120 82 -225 69 -175 94 -230 81 -180 -71 272
-82 305 -139 393 l-30 47 6 -35z"/>
<path d="M2985 5069 c-4 -6 -5 -12 -2 -15 2 -3 7 2 10 11 7 17 1 20 -8 4z"/>
<path d="M3000 5050 c0 -5 5 -10 10 -10 6 0 10 5 10 10 0 6 -4 10 -10 10 -5 0
-10 -4 -10 -10z"/>
<path d="M2961 5018 c-41 -66 -60 -108 -55 -122 3 -9 10 -16 14 -16 10 0 22
31 15 38 -3 3 -5 0 -5 -6 0 -7 -5 -12 -10 -12 -6 0 -4 13 5 30 8 16 21 27 28
24 8 -3 20 10 30 31 19 41 21 49 8 41 -5 -4 -11 -2 -13 4 -2 6 -9 0 -17 -12z
m0 -35 c-12 -20 -14 -14 -5 12 4 9 9 14 11 11 3 -2 0 -13 -6 -23z"/>
<path d="M3867 5025 c-21 -7 -45 -19 -54 -26 -26 -21 -72 -74 -68 -78 2 -2 23
10 47 27 60 42 81 46 103 22 20 -22 43 -25 98 -9 44 12 47 21 10 39 -74 34
-98 38 -136 25z"/>
<path d="M2481 4928 c76 -201 102 -258 114 -247 7 8 -62 208 -88 253 -34 60
-49 56 -26 -6z"/>
<path d="M4930 4538 c-18 -19 -50 -80 -50 -94 0 -12 22 -1 27 14 11 31 54 82
69 82 7 0 14 5 14 10 0 18 -39 10 -60 -12z"/>
<path d="M5720 5497 c0 -2 6 -20 14 -38 16 -40 29 -116 17 -103 -4 5 -16 32
-26 59 -18 51 -35 79 -42 71 -3 -2 2 -17 11 -33 8 -17 17 -65 20 -109 4 -63 3
-68 -3 -29 -9 55 -31 104 -56 125 -25 21 -28 5 -10 -49 9 -28 15 -55 13 -60
-2 -5 -29 20 -60 56 -89 98 -71 46 29 -85 l32 -42 -18 -43 c-11 -23 -33 -73
-51 -112 -41 -88 -80 -202 -80 -231 0 -33 25 -49 55 -36 34 16 62 66 75 132
21 108 24 114 65 136 59 30 82 71 90 160 7 69 5 83 -21 152 -16 41 -35 77 -41
80 -7 2 -13 2 -13 -1z"/>
<path d="M4337 4562 c-5 -35 -10 -71 -13 -80 -3 -9 2 -4 11 11 11 18 15 45 13
80 l-3 52 -8 -63z"/>
<path d="M4180 4508 c0 -74 5 -73 14 5 5 38 4 57 -3 57 -7 0 -11 -24 -11 -62z"/>
<path d="M3846 4434 c-9 -24 -7 -122 3 -128 12 -8 21 29 21 92 0 50 -12 68
-24 36z"/>
<path d="M3810 4378 c0 -29 4 -59 9 -66 5 -8 8 10 9 47 0 33 -3 63 -9 66 -5 4
-9 -16 -9 -47z"/>
<path d="M3360 4374 c-59 -16 -100 -38 -100 -54 0 -6 -7 -10 -16 -10 -8 0 -13
-4 -10 -9 6 -10 118 -7 135 3 6 4 9 11 6 16 -3 4 11 11 30 14 19 4 35 11 35
16 0 5 6 7 14 4 12 -5 33 13 25 20 -14 13 -73 13 -119 0z"/>
<path d="M3468 4333 c7 -3 16 -2 19 1 4 3 -2 6 -13 5 -11 0 -14 -3 -6 -6z"/>
<path d="M3175 4291 c-3 -6 0 -13 7 -15 70 -22 72 -25 13 -20 -33 3 -69 8 -80
11 -17 5 -18 4 -7 -10 8 -9 32 -21 55 -26 l42 -10 -40 3 c-22 1 -49 7 -60 11
-17 8 -18 7 -7 -7 27 -34 72 -31 152 9 l75 38 -55 6 c-30 4 -62 10 -71 14 -10
3 -20 2 -24 -4z"/>
<path d="M4435 4089 c-9 -17 -75 -88 -146 -159 l-130 -129 -57 -6 c-89 -10
-100 -11 -212 -2 -79 6 -129 4 -200 -7 -127 -21 -196 -20 -299 4 -87 21 -88
21 -109 65 -12 24 -24 75 -28 112 -6 56 -9 64 -17 45 -10 -22 -27 -30 -27 -13
0 13 -100 85 -107 77 -4 -4 12 -25 35 -49 22 -23 57 -76 76 -117 19 -41 43
-85 53 -96 59 -70 298 -116 428 -83 22 5 121 14 220 19 99 4 198 14 220 21 69
23 285 244 314 322 14 37 5 34 -14 -4z"/>
<path d="M3313 4022 c-24 -15 -33 -59 -20 -103 7 -23 18 -44 25 -47 9 -3 10 3
2 23 -15 39 -12 82 6 110 16 25 10 32 -13 17z"/>
<path d="M4186 3926 c-25 -35 -51 -66 -58 -69 -7 -2 -10 -8 -5 -12 13 -15 61
30 90 84 16 29 27 54 24 57 -2 3 -25 -24 -51 -60z"/>
<path d="M3332 3930 c-2 -31 34 -80 59 -80 7 0 3 9 -9 20 -20 19 -27 43 -23
78 1 6 -4 12 -11 12 -8 0 -15 -13 -16 -30z"/>
<path d="M4152 3930 c-7 -11 -30 -33 -52 -49 -22 -15 -37 -31 -33 -34 12 -12
79 44 104 86 14 24 -3 22 -19 -3z"/>
<path d="M3397 3903 c-3 -4 4 -19 14 -32 21 -26 105 -47 112 -27 2 6 13 3 27
-7 33 -23 105 -24 96 -1 -3 9 -6 20 -6 25 0 6 -8 9 -17 8 -10 -2 -27 0 -38 4
-37 12 -111 18 -95 7 13 -8 12 -10 -3 -10 -11 0 -15 -5 -11 -11 4 -7 1 -10 -7
-7 -17 6 -19 29 -4 41 6 5 -1 6 -14 3 -14 -3 -30 -1 -37 5 -7 5 -14 6 -17 2z"/>
<path d="M4030 3870 c-9 -6 -10 -10 -3 -10 6 0 15 5 18 10 8 12 4 12 -15 0z"/>
<path d="M3670 3850 c0 -13 38 -32 44 -21 3 4 -6 13 -19 19 -15 7 -25 8 -25 2z"/>
<path d="M3910 3850 c-18 -12 -2 -12 25 0 13 6 15 9 5 9 -8 0 -22 -4 -30 -9z"/>
<path d="M4896 3041 c-28 -31 -16 -71 22 -71 10 0 13 78 3 84 -5 3 -16 -3 -25
-13z"/>
<path d="M4846 2994 c-9 -24 -7 -39 9 -60 13 -18 14 -15 15 29 0 46 -12 62
-24 31z"/>
<path d="M4930 2875 c0 -8 5 -15 10 -15 6 0 10 7 10 15 0 8 -4 15 -10 15 -5 0
-10 -7 -10 -15z"/>
<path d="M2853 2824 c-8 -22 15 -61 65 -112 52 -53 77 -46 28 8 -19 22 -44 57
-56 80 -22 44 -28 48 -37 24z"/>
<path d="M4850 2810 c0 -5 7 -10 15 -10 8 0 15 5 15 10 0 6 -7 10 -15 10 -8 0
-15 -4 -15 -10z"/>
<path d="M4774 2778 c-31 -37 -57 -94 -51 -111 2 -7 12 4 22 23 10 19 28 49
40 65 32 43 37 55 26 55 -5 0 -22 -15 -37 -32z"/>
<path d="M2835 2741 c-6 -11 9 -23 19 -14 9 9 7 23 -3 23 -6 0 -12 -4 -16 -9z"/>
<path d="M4793 2714 c-35 -51 -59 -145 -32 -128 8 5 10 -1 6 -17 -26 -112 -17
-120 13 -13 23 79 24 88 10 79 -16 -10 -12 11 11 49 26 45 20 70 -8 30z"/>
<path d="M4627 2724 c-4 -4 -7 -11 -7 -15 0 -13 51 -69 63 -69 6 0 0 11 -12
24 -12 13 -21 32 -19 41 3 19 -13 31 -25 19z"/>
<path d="M4580 2679 c0 -26 29 -76 48 -84 7 -3 12 -2 10 2 -2 5 -14 29 -26 56
-25 52 -32 58 -32 26z"/>
<path d="M4542 2657 c-12 -14 -5 -54 17 -96 14 -26 47 -30 36 -3 -4 9 -12 35
-18 57 -12 50 -21 60 -35 42z"/>
<path d="M2955 2640 c-9 -15 4 -30 26 -30 23 0 26 25 3 34 -21 8 -22 8 -29 -4z"/>
<path d="M4507 2633 c-14 -13 -6 -69 13 -100 21 -35 48 -46 35 -15 -4 9 -13
38 -19 64 -12 50 -19 62 -29 51z"/>
<path d="M4820 2625 c0 -8 5 -15 10 -15 6 0 10 7 10 15 0 8 -4 15 -10 15 -5 0
-10 -7 -10 -15z"/>
<path d="M4656 2611 c-9 -15 23 -36 36 -23 5 5 7 15 4 21 -9 13 -33 14 -40 2z"/>
<path d="M2853 2588 c2 -7 10 -13 17 -13 7 0 15 6 18 13 2 7 -5 12 -18 12 -13
0 -20 -5 -17 -12z"/>
<path d="M4407 2555 c-9 -21 20 -110 40 -126 15 -12 16 -12 9 6 -25 63 -28 77
-19 86 7 7 18 -2 32 -27 26 -44 38 -40 17 7 -8 19 -17 42 -20 52 -7 21 -52 23
-59 2z"/>
<path d="M4614 2533 c-16 -21 -44 -55 -63 -75 -38 -44 -27 -51 19 -12 28 24
90 105 90 118 0 16 -19 2 -46 -31z"/>
<path d="M4358 2545 c-14 -15 25 -134 51 -155 12 -9 21 -33 24 -65 3 -27 10
-61 16 -75 l10 -25 0 26 c2 49 -18 128 -36 146 -10 10 -24 49 -32 86 -12 62
-19 75 -33 62z"/>
<path d="M4262 2518 c5 -16 43 -22 66 -12 14 6 13 8 -8 14 -39 12 -62 11 -58
-2z"/>
<path d="M4618 2457 c-32 -34 -56 -62 -55 -63 1 -2 16 6 34 17 29 18 90 95 82
103 -2 2 -30 -24 -61 -57z"/>
<path d="M4637 2419 c-34 -49 -41 -69 -19 -55 17 10 64 85 60 97 -2 6 -20 -13
-41 -42z"/>
<path d="M4716 2308 c-82 -235 -192 -600 -256 -853 -38 -148 -78 -306 -89
-349 -12 -44 -19 -81 -17 -84 3 -2 10 16 16 39 6 24 24 80 40 124 31 85 89
277 141 465 17 63 47 166 65 228 19 63 50 178 70 255 19 78 44 170 55 205 35
105 14 80 -25 -30z"/>
<path d="M4677 2393 c-3 -5 -7 -30 -11 -58 -8 -61 10 -40 20 23 6 38 2 54 -9
35z"/>
<path d="M4306 2361 c-10 -15 36 -61 71 -70 44 -13 50 2 8 18 -19 7 -43 23
-54 37 -11 14 -22 20 -25 15z"/>
<path d="M4474 2356 c-9 -24 2 -126 15 -139 8 -8 9 12 5 68 -7 87 -10 97 -20
71z"/>
<path d="M4187 2333 c-10 -10 -8 -63 2 -63 9 0 21 33 21 58 0 13 -13 16 -23 5z"/>
<path d="M4283 2294 c-9 -25 9 -47 52 -62 43 -14 62 -8 21 7 -39 16 -31 23 17
17 l42 -6 -30 15 c-16 8 -38 14 -47 15 -9 0 -24 7 -32 16 -15 14 -17 14 -23
-2z"/>
<path d="M3920 2292 c0 -6 -8 -13 -18 -16 -25 -8 -46 -46 -33 -59 8 -8 11 -8
11 0 0 6 12 26 26 43 15 17 24 34 20 37 -3 4 -6 1 -6 -5z"/>
<path d="M4077 2285 c-7 -16 8 -29 23 -20 15 9 12 35 -4 35 -8 0 -16 -7 -19
-15z"/>
<path d="M4230 2246 c0 -14 5 -28 11 -31 15 -10 18 -4 12 28 -7 34 -23 36 -23
3z"/>
<path d="M4516 2223 c9 -65 14 -67 14 -5 0 30 -4 52 -11 52 -7 0 -8 -16 -3
-47z"/>
<path d="M4120 2173 c-24 -50 -56 -90 -118 -150 -46 -46 -91 -83 -101 -83 -9
0 -48 32 -86 70 -38 39 -73 70 -77 70 -13 0 40 -96 74 -136 18 -20 47 -43 65
-50 29 -13 36 -12 70 7 53 29 93 70 131 133 33 53 87 194 79 202 -2 2 -19 -26
-37 -63z"/>
<path d="M3938 2183 c-47 -38 -58 -53 -37 -53 13 0 107 89 94 90 -6 0 -31 -17
-57 -37z"/>
<path d="M4290 2204 c0 -6 65 -34 77 -34 9 1 -58 39 -69 40 -5 0 -8 -2 -8 -6z"/>
<path d="M3958 2150 c-38 -38 -45 -59 -20 -68 7 -2 12 3 12 12 0 9 16 34 36
56 47 52 24 52 -28 0z"/>
<path d="M4420 2055 c0 -8 2 -15 4 -15 2 0 6 7 10 15 3 8 1 15 -4 15 -6 0 -10
-7 -10 -15z"/>
<path d="M3295 1830 c-3 -5 -2 -10 4 -10 5 0 13 5 16 10 3 6 2 10 -4 10 -5 0
-13 -4 -16 -10z"/>
<path d="M3328 1823 c-5 -29 -2 -63 7 -63 16 0 34 -47 27 -73 -5 -19 -3 -20
10 -9 14 11 18 6 33 -43 19 -57 37 -69 55 -35 8 16 7 27 -7 50 -9 17 -21 30
-25 30 -4 0 -5 7 -2 15 4 8 1 15 -5 15 -6 0 -11 7 -11 15 0 8 -9 20 -20 27
-11 7 -20 18 -20 25 0 7 -7 13 -16 13 -11 0 -15 6 -11 20 3 11 1 20 -4 20 -5
0 -10 -3 -11 -7z m108 -190 c-10 -10 -19 5 -10 18 6 11 8 11 12 0 2 -7 1 -15
-2 -18z"/>
<path d="M3260 1683 c0 -29 156 -427 230 -588 99 -215 124 -265 131 -265 4 0
-21 64 -57 143 -84 182 -150 340 -230 546 -62 159 -74 186 -74 164z"/>
<path d="M4732 1572 c-49 -124 -173 -504 -167 -511 3 -2 7 2 10 10 30 83 195
561 200 582 14 53 -1 26 -43 -81z"/>
<path d="M3460 1575 c0 -7 -8 -19 -17 -24 -17 -10 -17 -10 0 -11 9 0 17 -7 17
-15 0 -8 6 -15 14 -15 8 0 17 -6 20 -12 3 -7 4 0 1 15 -4 19 -2 26 5 22 11 -7
13 5 4 29 -3 9 -10 13 -15 10 -5 -3 -9 0 -9 5 0 6 -4 11 -10 11 -5 0 -10 -7
-10 -15z"/>
<path d="M2375 1568 c-27 -10 -54 -24 -60 -30 -7 -8 -4 -9 10 -3 11 4 47 18
80 31 33 13 51 23 40 22 -11 0 -42 -9 -70 -20z"/>
<path d="M5641 1535 c-11 -52 -84 -238 -100 -257 -3 -4 -39 18 -79 48 -39 30
-72 50 -72 45 0 -6 31 -32 70 -58 38 -27 69 -52 70 -57 1 -20 -114 -238 -139
-262 -45 -46 -82 -70 -241 -162 -85 -49 -165 -95 -178 -103 -21 -13 -25 -12
-50 16 -15 17 -35 41 -45 55 -9 13 -19 22 -21 19 -3 -3 16 -29 41 -58 53 -61
61 -48 -67 -116 -41 -23 -103 -58 -138 -78 -35 -20 -66 -37 -69 -37 -4 0 -14
-7 -23 -15 -19 -18 -177 -47 -350 -65 -127 -14 -625 -19 -790 -8 l-105 6 75
-14 c135 -24 515 -38 695 -25 144 10 365 47 488 82 51 15 75 33 32 24 -16 -3
40 28 125 70 85 43 187 96 225 119 39 24 129 76 200 116 217 121 248 151 336
330 39 79 100 244 119 321 6 25 10 63 8 85 -3 39 -3 38 -17 -21z"/>
<path d="M2254 1504 c-18 -14 -18 -15 4 -4 12 6 22 13 22 15 0 8 -5 6 -26 -11z"/>
<path d="M2353 1250 c-28 -22 -55 -45 -59 -52 -4 -6 20 9 54 36 34 26 62 49
62 52 0 6 -2 5 -57 -36z"/>
<path d="M5241 1208 c24 -17 67 -49 94 -71 l50 -41 -40 43 c-40 43 -120 101
-138 101 -6 0 10 -14 34 -32z"/>
<path d="M2370 1169 l-35 -30 38 26 c33 24 43 35 34 35 -1 0 -18 -14 -37 -31z"/>
<path d="M5021 1053 c0 -4 27 -30 61 -58 88 -73 121 -94 63 -40 -68 63 -125
108 -124 98z"/>
<path d="M2882 873 c-37 -55 -71 -114 -59 -103 4 4 85 123 103 153 3 4 3 7 0
7 -3 0 -23 -26 -44 -57z"/>
<path d="M4486 730 c13 -46 43 -125 43 -115 1 16 -27 103 -39 123 -9 14 -10
13 -4 -8z"/>
<path d="M3421 639 c-6 -18 -13 -58 -16 -88 -5 -49 -3 -45 14 29 20 90 20 112
2 59z"/>
<path d="M3673 600 c0 -36 2 -50 4 -32 2 17 2 47 0 65 -2 17 -4 3 -4 -33z"/>
<path d="M3070 510 c8 -5 20 -10 25 -10 6 0 3 5 -5 10 -8 5 -19 10 -25 10 -5
0 -3 -5 5 -10z"/>
</g>
</svg>
