<svg xmlns="http://www.w3.org/2000/svg" version="1.1" xmlns:xlink="http://www.w3.org/1999/xlink" xmlns:svgjs="http://svgjs.dev/svgjs" viewBox="0 0 800 800"><defs><linearGradient x1="50%" y1="0%" x2="50%" y2="100%" id="ccchaos-grad"><stop stop-color="#01676d" stop-opacity="1" offset="0%"></stop><stop stop-color="#f8d534" stop-opacity="1" offset="100%"></stop></linearGradient></defs><g stroke-width="2" stroke="url(#ccchaos-grad)" fill="none" stroke-linecap="round"><path d="M114.82 100.49Q123.81 101.32 132.8 102.44 141.8 103.81 150.79 105.4 159.78 107.19 168.77 109.13 177.77 111.17 186.76 113.28 195.75 115.41 204.75 117.5 213.74 119.51 222.73 121.41 231.72 123.14 240.72 124.66 249.71 125.95 258.7 126.98 267.7 127.71 276.69 128.15 285.68 128.27 294.67 128.07 303.67 127.56 312.66 126.76 321.65 125.67 330.65 124.32 339.64 122.74 348.63 120.97 357.62 119.04 366.62 117 375.61 114.9 384.6 112.78 393.6 110.68 402.59 108.65 411.58 106.75 420.57 105 429.57 103.46 438.56 102.15 447.55 101.1 456.55 100.33 465.54 99.87 474.53 99.72 483.53 99.89 492.52 100.37 501.51 101.15 510.5 102.21 519.5 103.54 528.49 105.1 537.48 106.86 546.48 108.77 555.47 110.8 564.46 112.9 573.45 115.02 582.45 117.12 591.44 119.16 600.43 121.08 609.43 122.84 618.42 124.4 627.41 125.74 636.4 126.81 645.4 127.6 654.39 128.09 663.38 128.27 672.38 128.13 681.37 127.68 690.36 126.92 699.72 136.16 708.19 145.41 715.22 154.65 720.36 163.89 723.27 173.13 723.76 182.37 721.8 191.61 717.52 200.85 711.19 210.09 703.23 219.33 694.15 228.58 684.55 237.82 675.03 247.06 666.23 256.3 658.71 265.54 652.96 274.78 649.35 284.02 648.12 293.26 649.35 302.5 652.95 311.74 658.69 320.99 666.21 330.23 675 339.47 684.52 348.71 694.12 357.95 703.2 367.19 711.17 376.43 717.5 385.67 721.79 394.91 723.75 404.16 723.27 413.4 720.37 422.64 715.24 431.88 708.22 441.12 699.75 450.36 690.39 459.6 680.75 468.84 671.44 478.08 663.08 487.32 656.21 496.57 651.27 505.81 648.58 515.05 648.31 524.29 650.49 533.53 654.98 542.77 661.47 552.01 669.55 561.25 678.71 570.49 688.33 579.74 697.8 588.98 706.51 598.22 713.88 607.46 719.45 616.7 722.85 625.94 723.86 635.18 722.41 644.42 718.6 653.66 712.68 662.9 705.02 672.15 696.13 681.39 686.59 690.63 677 699.87 668 709.11 660.17 718.35 642.95 720.98 625.73 721.27 617.12 720.05 608.51 718.07 599.9 715.38 591.29 712.04 582.68 708.12 574.07 703.71 565.46 698.91 556.85 693.83 548.24 688.57 539.63 683.25 531.02 678 522.41 672.92 513.8 668.13 505.19 663.73 496.58 659.83 487.97 656.51 479.36 653.85 470.75 651.89 453.53 650.67 436.31 651.8 427.7 653.71 419.09 656.34 410.48 659.62 401.87 663.49 393.26 667.86 384.65 672.63 376.04 677.69 367.43 682.94 358.82 688.26 350.21 693.52 341.6 698.62 332.99 703.44 324.38 707.88 315.77 711.83 307.16 715.2 298.55 717.93 281.33 720.83 264.11 721.41 255.5 720.33 246.89 718.48 238.28 715.92 229.67 712.69 221.06 708.87 212.45 704.54 203.84 699.81 195.23 694.76 186.62 689.53 178.01 684.21 169.4 678.94 160.79 673.82 152.18 668.97 143.57 664.5 134.96 660.5 126.35 657.07 114.18 648.92 112.3 634.95 114.11 626.33 115.9 617.71 118.85 600.47 120.85 583.23 120.71 565.99 119.24 548.74 117.86 540.12 116.22 531.5 114.43 522.88 112.62 514.26 109.53 497.02 107.31 479.78 107.18 462.54 108.39 445.3 109.68 436.68 111.26 428.06 113.01 419.44 114.82 410.82 118.04 393.58 120.46 376.34 120.87 359.1 119.92 341.86 118.73 333.24 117.23 324.62 115.52 316 113.72 307.37 110.39 290.13 107.78 272.89 107.1 255.65 107.78 238.41 110.4 221.17 113.72 203.93 115.53 195.31 117.24 186.69 119.73 169.45 121.1 152.21 120.25 134.97 118.17 117.73 116.58 109.11 114.82 100.49" stroke-dasharray="3 7" transform="rotate(0, 400, 400)" opacity="0.40"></path><path d="M128.21 112.19Q145.78 114.75 163.36 118.14 180.93 122.09 198.5 126.28 216.07 130.36 233.65 134.01 251.22 136.92 268.79 138.85 286.36 139.66 303.94 139.28 321.51 137.73 339.08 135.14 356.65 131.72 374.23 127.76 391.8 123.57 409.37 119.5 426.94 115.87 444.52 112.99 462.09 111.09 479.66 110.32 497.23 110.75 514.81 112.33 532.38 114.95 549.95 118.39 567.52 122.37 585.1 126.56 602.67 130.62 620.24 134.22 637.81 137.08 655.39 138.94 672.96 139.67 690.53 139.21 704.68 157.02 711.81 174.83 710.24 192.64 700.34 210.45 684.45 228.27 666.33 246.08 650.25 263.89 640.03 281.7 638.06 299.51 644.83 317.32 658.73 335.13 676.47 352.95 693.86 370.76 706.79 388.57 712.21 406.38 708.84 424.19 697.46 442 680.77 459.81 662.72 477.62 647.57 495.44 638.9 513.25 638.76 531.06 647.19 548.87 662.18 566.68 680.21 584.49 697 602.3 708.59 620.11 712.24 637.93 707.09 655.74 694.35 673.55 677.04 691.36 659.25 709.17 642.45 710.29 625.65 708.53 608.85 704.04 592.06 697.18 575.26 688.52 558.46 678.75 541.66 668.67 524.87 659.11 508.07 650.85 491.27 644.55 474.48 640.74 457.68 639.71 440.88 641.56 424.08 646.14 407.29 653.07 390.49 661.78 373.69 671.57 356.9 681.64 340.1 691.17 323.3 699.38 306.5 705.6 289.71 709.33 272.91 710.26 256.11 708.32 239.31 703.66 222.52 696.66 205.72 687.9 188.92 678.08 172.13 668.02 155.33 658.52 138.53 650.37 121.73 644.22 125.42 627.59 129 610.97 131.64 594.34 132.71 577.72 131.95 561.09 129.55 544.47 126.07 527.84 122.34 511.21 119.24 494.59 117.49 477.96 117.52 461.34 119.32 444.71 122.45 428.08 126.19 411.46 129.65 394.83 132 378.21 132.7 361.58 131.58 344.96 128.9 328.33 125.3 311.7 121.63 295.08 118.75 278.45 117.35 261.83 117.75 245.2 119.87 228.58 123.2 211.95 126.95 195.32 130.24 178.7 132.29 162.07 132.62 145.45 131.14 128.82 128.21 112.19" stroke-dasharray="4 4" transform="rotate(4.04, 400, 400)" opacity="0.64"></path><path d="M141.62 124.41Q158.72 127.47 175.82 131.17 192.93 135.24 210.03 139.36 227.13 143.24 244.23 146.56 261.33 149.09 278.43 150.64 295.53 151.09 312.63 150.4 329.73 148.63 346.83 145.91 363.93 142.45 381.03 138.5 398.13 134.36 415.23 130.35 432.34 126.76 449.44 123.86 466.54 121.88 483.64 120.95 500.74 121.16 517.84 122.48 534.94 124.82 552.04 128 569.14 131.78 586.24 135.87 603.34 139.98 620.44 143.78 637.54 147 654.64 149.4 671.75 150.78 688.85 151.06 698.39 168.17 700.44 185.29 694.53 202.41 681.96 219.53 665.47 236.64 648.66 253.76 635.2 270.88 628.01 287.99 628.68 305.11 637.05 322.23 651.3 339.35 668.32 356.46 684.39 373.58 696.02 390.7 700.66 407.81 697.3 424.93 686.67 442.05 671.1 459.17 653.98 476.28 639.04 493.4 629.55 510.52 627.57 527.63 633.54 544.75 646.15 561.87 662.65 578.99 679.45 596.1 692.88 613.22 700 630.34 699.27 647.46 690.85 664.57 676.56 681.69 659.53 698.81 643.14 698.17 626.75 694.97 610.36 689.44 593.97 681.99 577.57 673.2 561.18 663.71 544.79 654.25 528.4 645.51 512 638.17 495.61 632.76 479.22 629.71 462.83 629.23 446.44 631.36 430.04 635.95 413.65 642.64 397.26 650.94 380.87 660.22 364.48 669.78 348.08 678.91 331.69 686.92 315.3 693.2 298.91 697.29 282.51 698.88 266.12 697.85 249.73 694.27 233.34 688.42 216.95 680.73 200.55 671.78 184.16 662.25 167.77 652.85 151.38 644.29 134.98 637.21 138.84 621.18 142.08 605.16 143.99 589.13 144.15 573.11 142.54 557.08 139.5 541.06 135.69 525.03 131.95 509.01 129.1 492.98 127.74 476.96 128.19 460.93 130.34 444.91 133.73 428.88 137.6 412.86 141.13 396.83 143.54 380.81 144.3 364.78 143.25 348.76 140.61 332.73 136.97 316.71 133.12 300.68 129.89 284.66 128 268.63 127.85 252.61 129.47 236.58 132.52 220.56 136.33 204.53 140.06 188.51 142.91 172.48 144.25 156.46 143.79 140.43 141.62 124.41" stroke-dasharray="4 4" transform="rotate(8.08, 400, 400)" opacity="0.44"></path><path d="M154.75 137.1Q171.31 140.56 187.86 144.45 204.41 148.53 220.97 152.5 237.52 156.09 254.07 159.05 270.63 161.17 287.18 162.32 303.73 162.41 320.29 161.44 336.84 159.47 353.39 156.64 369.95 153.14 386.5 149.21 403.05 145.14 419.61 141.19 436.16 137.64 452.71 134.74 469.27 132.69 485.82 131.62 502.37 131.61 518.93 132.67 535.48 134.72 552.03 137.61 568.58 141.15 585.14 145.1 601.69 149.17 618.24 153.1 634.8 156.6 651.35 159.44 667.9 161.43 684.46 162.41 689.03 178.81 686.37 195.21 677.01 211.62 662.83 228.02 646.68 244.42 631.8 260.82 621.17 277.22 616.92 293.62 619.92 310.03 629.55 326.43 643.88 342.83 660.05 359.23 674.8 375.63 685.17 392.03 689.09 408.44 685.76 424.84 675.86 441.24 661.37 457.64 645.2 474.04 630.6 490.44 620.48 506.85 616.9 523.25 620.55 539.65 630.72 556.05 645.35 572.45 661.52 588.86 675.98 605.26 685.83 621.66 689.08 638.06 685.1 654.46 674.67 670.86 659.9 687.27 643.92 685.08 627.95 680.67 611.97 674.36 596 666.56 580.02 657.84 564.05 648.77 548.07 640 532.1 632.13 516.12 625.7 500.15 621.15 484.17 618.8 468.2 618.81 452.22 621.19 436.25 625.76 420.27 632.21 404.3 640.09 388.32 648.87 372.35 657.93 356.37 666.65 340.4 674.43 324.42 680.73 308.45 685.11 292.47 687.28 276.5 687.07 260.52 684.52 244.55 679.79 228.57 673.2 212.6 665.23 196.62 656.4 180.65 647.35 164.67 638.68 148.7 631 152.34 615.57 154.91 600.13 155.89 584.7 155.09 569.26 152.66 553.83 149.1 538.39 145.11 522.96 141.5 507.53 139 492.09 138.09 476.66 138.98 461.22 141.47 445.79 145.07 430.35 149.06 414.92 152.63 399.49 155.07 384.05 155.89 368.62 154.93 353.18 152.37 337.75 148.73 322.31 144.75 306.88 141.21 291.44 138.84 276.01 138.1 260.58 139.15 245.14 141.77 229.71 145.44 214.27 149.42 198.84 152.92 183.4 155.22 167.97 155.88 152.54 154.75 137.1" stroke-dasharray="9 8" transform="rotate(12.12, 400, 400)" opacity="0.93"></path><path d="M167.3 150.24Q183.22 153.96 199.15 157.93 215.07 161.9 230.99 165.63 246.91 168.88 262.83 171.43 278.76 173.14 294.68 173.89 310.6 173.63 326.52 172.39 342.44 170.24 358.37 167.31 374.29 163.79 390.21 159.91 406.13 155.91 422.05 152.04 437.98 148.54 453.9 145.64 469.82 143.53 485.74 142.32 501.67 142.11 517.59 142.9 533.51 144.65 549.43 147.24 565.35 150.51 581.28 154.25 597.2 158.23 613.12 162.19 629.04 165.89 644.96 169.09 660.89 171.59 676.81 173.23 676.53 188.9 669.91 204.56 658.15 220.23 643.43 235.9 628.44 251.57 615.94 267.23 608.23 282.9 606.73 298.57 611.72 314.24 622.27 329.91 636.45 345.57 651.64 361.24 665.07 376.91 674.25 392.58 677.5 408.24 674.23 423.91 665.02 439.58 651.59 455.25 636.39 470.91 622.22 486.58 611.68 502.25 606.73 517.92 608.25 533.58 615.98 549.25 628.49 564.92 643.49 580.59 658.21 596.25 669.95 611.92 676.55 627.59 676.8 643.26 670.65 658.92 659.23 674.59 643.71 671.09 628.19 665.74 612.67 658.9 597.15 650.98 581.63 642.5 566.11 633.99 550.59 625.98 535.07 618.98 519.55 613.44 504.03 609.71 488.51 608.01 472.99 608.46 457.47 611.04 441.95 615.57 426.43 621.77 410.91 629.25 395.39 637.53 379.88 646.1 364.36 654.4 348.84 661.93 333.32 668.19 317.8 672.8 302.28 675.46 286.76 676 271.24 674.4 255.72 670.75 240.2 665.28 224.68 658.33 209.16 650.36 193.64 641.86 178.12 633.36 162.6 625.41 165.65 610.56 167.3 595.71 167.23 580.87 165.47 566.02 162.33 551.17 158.39 536.32 154.39 521.47 151.04 506.62 148.97 491.77 148.57 476.92 149.89 462.07 152.71 447.22 156.5 432.38 160.56 417.53 164.15 402.68 166.61 387.83 167.49 372.98 166.62 358.13 164.16 343.28 160.57 328.43 156.51 313.58 152.72 298.73 149.9 283.89 148.57 269.04 148.97 254.19 151.03 239.34 154.37 224.49 158.38 209.64 162.31 194.79 165.46 179.94 167.23 165.09 167.3 150.24" stroke-dasharray="8 10" transform="rotate(16.16, 400, 400)" opacity="0.40"></path><path d="M179.01 163.78Q194.22 167.62 209.43 171.54 224.64 175.31 239.84 178.72 255.05 181.57 270.26 183.69 285.47 184.97 300.68 185.33 315.89 184.74 331.09 183.25 346.3 180.94 361.51 177.93 376.72 174.42 391.93 170.59 407.14 166.67 422.34 162.88 437.55 159.45 452.76 156.56 467.97 154.4 483.18 153.07 498.38 152.66 513.59 153.19 528.8 154.63 544.01 156.9 559.22 159.87 574.43 163.36 589.63 167.18 604.84 171.1 620.05 174.9 635.26 178.36 650.47 181.28 665.68 183.49 661.14 198.41 651.55 213.33 638.52 228.25 624.22 243.17 611.05 258.08 601.24 273 596.41 287.92 597.39 302.84 604 317.76 615.14 332.67 628.95 347.59 643.09 362.51 655.21 377.43 663.26 392.35 665.9 407.26 662.69 422.18 654.16 437.1 641.74 452.02 627.52 466.94 613.88 481.85 603.12 496.77 597.03 511.69 596.64 526.61 602.01 541.53 612.24 556.44 625.63 571.36 639.91 586.28 652.69 601.2 661.84 616.12 665.81 631.03 663.94 645.95 656.55 660.87 641.54 656.31 626.54 650.3 611.53 643.17 596.53 635.34 581.52 627.26 566.51 619.39 551.51 612.2 536.5 606.08 521.5 601.41 506.49 598.43 491.49 597.34 476.48 598.18 461.48 600.91 446.47 605.38 431.47 611.32 416.46 618.4 401.46 626.2 386.45 634.28 371.44 642.17 356.44 649.42 341.43 655.6 326.43 660.37 311.42 663.44 296.42 664.64 281.41 663.91 266.41 661.28 251.4 656.9 236.4 651.03 221.39 644.01 206.39 636.24 191.38 628.16 176.37 620.25 178.51 605.98 179.05 591.72 177.9 577.45 175.26 563.19 171.57 548.93 167.44 534.66 163.58 520.4 160.62 506.13 159.07 491.87 159.19 477.6 160.94 463.34 164.05 449.07 167.99 434.81 172.1 420.54 175.68 406.28 178.15 392.01 179.08 377.75 178.31 363.48 175.99 349.22 172.49 334.96 168.4 320.69 164.42 306.43 161.2 292.16 159.29 277.9 159.01 263.63 160.4 249.37 163.24 235.1 167.04 220.84 171.17 206.57 174.93 192.31 177.7 178.04 179.01 163.78" stroke-dasharray="7 2" transform="rotate(20.200000000000003, 400, 400)" opacity="0.25"></path><path d="M189.7 177.63Q204.12 181.46 218.54 185.21 232.96 188.69 247.38 191.72 261.8 194.13 276.23 195.8 290.65 196.65 305.07 196.62 319.49 195.73 333.91 194.01 348.33 191.56 362.76 188.51 377.18 185.01 391.6 181.25 406.02 177.42 420.44 173.73 434.86 170.36 449.29 167.5 463.71 165.29 478.13 163.85 492.55 163.26 506.97 163.54 521.39 164.68 535.82 166.62 550.24 169.26 564.66 172.46 579.08 176.06 593.5 179.86 607.92 183.67 622.35 187.28 636.77 190.52 651.19 193.2 643.33 207.36 631.91 221.52 618.68 235.67 605.65 249.83 594.81 263.99 587.8 278.14 585.7 292.3 588.82 306.46 596.69 320.61 608.12 334.77 621.35 348.93 634.38 363.08 645.21 377.24 652.21 391.4 654.29 405.55 651.15 419.71 643.26 433.87 631.83 448.02 618.6 462.18 605.57 476.34 594.75 490.49 587.77 504.65 585.7 518.81 588.86 532.96 596.76 547.12 608.2 561.28 621.44 575.43 634.46 589.59 645.27 603.75 652.24 617.9 645.49 636.47 622.28 634.46 607.86 627.29 593.44 619.73 579.02 612.18 564.6 605.04 550.18 598.69 535.76 593.45 521.34 589.59 506.92 587.33 492.49 586.77 478.07 587.96 463.65 590.81 449.23 595.2 434.81 600.88 420.39 607.55 405.97 614.88 391.55 622.48 377.13 629.95 362.71 636.9 348.29 642.96 333.87 647.82 319.45 651.23 305.03 653 290.61 653.05 276.19 651.37 261.77 648.05 247.35 643.26 232.93 637.26 218.51 630.35 204.09 622.9 189.67 615.3 190.66 601.63 190.02 587.95 187.86 574.27 184.49 560.59 180.44 546.92 176.33 533.24 172.77 519.56 170.31 505.88 169.33 492.21 169.97 478.53 172.14 464.85 175.51 451.18 179.56 437.5 183.68 423.82 187.23 410.14 189.68 396.47 190.66 382.79 190.01 369.11 187.84 355.44 184.47 341.76 180.42 328.08 176.3 314.4 172.75 300.73 170.3 287.05 169.33 273.37 169.98 259.69 172.16 246.02 175.53 232.34 179.59 218.66 183.7 204.99 187.25 191.31 189.7 177.63" stroke-dasharray="1 7" transform="rotate(24.24, 400, 400)" opacity="0.40"></path><path d="M199.28 191.71Q212.86 195.4 226.44 198.88 240.01 201.98 253.59 204.57 267.17 206.52 280.75 207.73 294.33 208.16 307.91 207.77 321.49 206.59 335.07 204.68 348.64 202.12 362.22 199.03 375.8 195.57 389.38 191.89 402.96 188.16 416.54 184.57 430.12 181.29 443.7 178.46 457.27 176.22 470.85 174.68 484.43 173.92 498.01 173.95 511.59 174.8 525.17 176.4 538.75 178.7 552.33 181.57 565.9 184.9 579.48 188.5 593.06 192.23 606.64 195.9 621.99 207.55 611.68 229.15 599.23 242.54 588.13 255.93 579.9 269.32 575.68 282.7 576.04 296.09 580.94 309.48 589.71 322.87 601.12 336.25 613.63 349.64 625.49 363.03 635.08 376.42 641.09 389.8 642.67 403.19 639.62 416.58 632.35 429.96 621.86 443.35 609.61 456.74 597.27 470.13 586.54 483.51 578.91 496.9 575.42 510.29 576.55 523.68 582.15 537.06 591.44 550.45 603.15 563.84 615.67 577.23 627.27 590.61 636.35 604 635.19 621.17 614.96 618.38 601.2 611.36 587.44 604.23 573.68 597.33 559.92 590.97 546.16 585.47 532.41 581.08 518.65 578 504.89 576.39 491.13 576.32 477.37 577.79 463.61 580.73 449.85 585.01 436.09 590.42 422.33 596.71 408.57 603.58 394.81 610.7 381.05 617.74 367.29 624.37 353.53 630.28 339.77 635.18 326.01 638.84 312.25 641.09 298.49 641.83 284.74 641.02 270.98 638.7 257.22 634.97 243.46 630.02 229.7 624.08 215.94 617.42 202.18 610.37 201.91 597.28 200.13 584.2 197.1 571.12 193.22 558.03 189.04 544.95 185.13 531.87 182.03 518.78 180.16 505.7 179.78 492.62 180.95 479.54 183.5 466.45 187.08 453.37 191.2 440.29 195.29 427.2 198.79 414.12 201.22 401.04 202.24 387.96 201.71 374.87 199.71 361.79 196.5 348.71 192.54 335.62 188.37 322.54 184.55 309.46 181.63 296.37 179.99 283.29 179.87 270.21 181.28 257.13 184.03 244.04 187.73 230.96 191.89 217.88 195.92 204.79 199.28 191.71" stroke-dasharray="2 1" transform="rotate(28.28, 400, 400)" opacity="0.89"></path><path d="M207.8 205.92Q220.5 209.34 233.2 212.46 245.9 215.13 258.6 217.24 271.31 218.71 284.01 219.47 296.71 219.49 309.41 218.76 322.11 217.33 334.81 215.25 347.51 212.6 360.21 209.51 372.91 206.09 385.61 202.5 398.31 198.9 411.01 195.42 423.71 192.22 436.41 189.44 449.12 187.18 461.82 185.56 474.52 184.63 487.22 184.44 499.92 184.99 512.62 186.27 525.32 188.21 538.02 190.73 550.72 193.73 563.42 197.09 576.12 200.65 588.82 204.26 602.37 215.73 591.56 236.29 580.7 248.9 571.98 261.52 566.48 274.13 564.88 286.75 567.37 299.36 573.66 311.97 582.95 324.59 594.11 337.2 605.74 349.82 616.42 362.43 624.82 375.05 629.9 387.66 631.03 400.27 628.08 412.89 621.4 425.5 611.83 438.12 600.55 450.73 588.95 463.35 578.47 475.96 570.4 488.57 565.75 501.19 565.09 513.8 568.5 526.42 575.56 539.03 585.39 551.65 596.78 564.26 608.33 576.88 618.59 589.49 621.9 605.39 604.47 602.18 591.44 595.51 578.41 588.94 565.38 582.75 552.36 577.22 539.33 572.56 526.3 568.98 513.27 566.63 500.24 565.61 487.22 565.96 474.19 567.68 461.16 570.67 448.13 574.83 435.1 579.96 422.08 585.86 409.05 592.28 396.02 598.94 382.99 605.55 369.97 611.85 356.94 617.56 343.91 622.44 330.88 626.29 317.85 628.93 304.83 630.26 291.8 630.23 278.77 628.83 265.74 626.12 252.72 622.22 239.69 617.3 226.66 611.55 213.63 605.23 212.12 592.75 209.36 580.27 205.69 567.8 201.56 555.32 197.49 542.84 193.97 530.36 191.44 517.88 190.22 505.4 190.46 492.92 192.12 480.45 195.01 467.97 198.76 455.49 202.91 443.01 206.95 430.53 210.37 418.05 212.76 405.57 213.82 393.1 213.41 380.62 211.59 368.14 208.59 355.66 204.77 343.18 200.6 330.7 196.61 318.22 193.29 305.75 191.04 293.27 190.15 280.79 190.72 268.31 192.69 255.83 195.81 243.35 199.69 230.87 203.86 218.4 207.8 205.92" stroke-dasharray="5 11" transform="rotate(32.32, 400, 400)" opacity="0.66"></path><path d="M215.44 220.14Q227.25 223.2 239.06 225.87 250.87 228.06 262.68 229.68 274.49 230.66 286.3 230.98 298.11 230.62 309.92 229.59 321.73 227.93 333.54 225.71 345.36 223.01 357.17 219.93 368.98 216.58 380.79 213.1 392.6 209.62 404.41 206.26 416.22 203.16 428.03 200.43 439.84 198.18 451.65 196.49 463.46 195.42 475.27 195.01 487.08 195.29 498.9 196.23 510.71 197.81 522.52 199.96 534.33 202.61 546.14 205.65 557.95 208.97 569.76 212.44 582.07 223.54 572.24 242.99 563.55 254.83 557.44 266.67 554.6 278.51 555.34 290.36 559.58 302.2 566.84 314.04 576.33 325.88 587 337.72 597.67 349.56 607.16 361.4 614.42 373.24 618.65 385.09 619.39 396.93 616.54 408.77 610.43 420.61 601.74 432.45 591.41 444.29 580.59 456.13 570.49 467.97 562.2 479.82 556.66 491.66 554.47 503.5 555.87 515.34 560.71 527.18 568.45 539.02 578.24 550.86 589 562.7 599.54 574.55 592.34 584.56 566.5 573.92 554.26 568.51 542.03 563.8 529.79 559.97 517.55 557.16 505.32 555.48 493.08 554.99 480.84 555.71 468.61 557.61 456.37 560.63 444.13 564.64 431.9 569.5 419.66 575.02 407.42 580.99 395.19 587.19 382.95 593.38 370.71 599.33 358.48 604.82 346.24 609.63 334 613.58 321.77 616.53 309.53 618.36 297.3 619.01 285.06 618.44 272.82 616.69 260.59 613.81 248.35 609.91 236.11 605.16 223.88 599.71 221.29 587.85 217.79 575.99 213.76 564.12 209.65 552.26 205.9 540.4 202.94 528.54 201.09 516.68 200.55 504.82 201.39 492.95 203.51 481.09 206.68 469.23 210.55 457.37 214.68 445.51 218.63 433.65 221.96 421.79 224.29 409.92 225.38 398.06 225.1 386.2 223.48 374.34 220.71 362.48 217.08 350.62 213 338.75 208.92 326.89 205.29 315.03 202.51 303.17 200.89 291.31 200.61 279.45 201.69 267.58 204.03 255.72 207.35 243.86 211.3 232 215.44 220.14" stroke-dasharray="9 6" transform="rotate(36.36, 400, 400)" opacity="0.95"></path><path d="M222.48 234.26Q233.41 236.87 244.34 239.05 255.27 240.73 266.2 241.84 277.13 242.36 288.06 242.26 298.99 241.55 309.92 240.25 320.86 238.41 331.79 236.08 342.72 233.35 353.65 230.3 364.58 227.04 375.51 223.69 386.44 220.34 397.37 217.11 408.3 214.12 419.23 211.45 430.17 209.21 441.1 207.46 452.03 206.26 462.96 205.67 473.89 205.68 484.82 206.31 495.75 207.53 506.68 209.3 517.61 211.57 528.55 214.25 539.48 217.26 550.41 220.49 561.99 231.06 554.32 249.35 548.12 260.42 544.65 271.49 544.26 282.56 546.97 293.63 552.52 304.71 560.38 315.78 569.76 326.85 579.76 337.92 589.39 348.99 597.7 360.07 603.89 371.14 607.35 382.21 607.73 393.28 605.01 404.35 599.44 415.43 591.58 426.5 582.19 437.57 572.19 448.64 562.57 459.71 554.26 470.78 548.08 481.86 544.64 492.93 544.26 504 547 515.07 552.58 526.14 560.45 537.22 569.84 548.29 579.84 559.36 575.73 568.76 552.15 559.26 540.75 554.65 529.34 550.76 517.94 547.72 506.54 545.62 495.14 544.54 483.73 544.52 472.33 545.55 460.93 547.6 449.53 550.6 438.12 554.45 426.72 559.03 415.32 564.17 403.92 569.71 392.51 575.46 381.11 581.23 369.71 586.83 358.31 592.06 346.9 596.75 335.5 600.75 324.1 603.91 312.69 606.14 301.29 607.36 289.89 607.53 278.49 606.65 267.08 604.73 255.68 601.85 244.28 598.11 232.88 593.62 229.49 582.39 225.56 571.16 221.49 559.93 217.65 548.7 214.44 537.47 212.17 526.24 211.05 515.01 211.2 503.78 212.61 492.55 215.13 481.32 218.52 470.09 222.44 458.86 226.52 447.63 230.35 436.4 233.56 425.17 235.83 413.94 236.94 402.71 236.79 391.48 235.38 380.25 232.85 369.02 229.46 357.79 225.53 346.56 221.45 335.33 217.62 324.1 214.42 312.87 212.15 301.64 211.04 290.41 211.21 279.18 212.62 267.95 215.15 256.72 218.55 245.49 222.48 234.26" stroke-dasharray="9 6" transform="rotate(40.400000000000006, 400, 400)" opacity="0.59"></path><path d="M229.3 248.16Q239.38 250.26 249.46 251.92 259.54 253.07 269.62 253.7 279.7 253.77 289.78 253.29 299.87 252.27 309.95 250.74 320.03 248.75 330.11 246.35 340.19 243.61 350.27 240.63 360.35 237.47 370.43 234.25 380.51 231.04 390.59 227.96 400.67 225.08 410.75 222.49 420.84 220.27 430.92 218.48 441 217.19 451.08 216.41 461.16 216.18 471.24 216.51 481.32 217.39 491.4 218.78 501.48 220.65 511.56 222.94 521.64 225.59 531.73 228.51 542.99 238.39 538.26 255.46 534.65 265.77 533.65 276.08 535.35 286.39 539.61 296.7 546.06 307.01 554.14 317.32 563.15 327.63 572.33 337.94 580.87 348.25 588.04 358.55 593.23 368.86 595.98 379.17 596.06 389.48 593.47 399.79 588.42 410.1 581.35 420.41 572.87 430.72 563.72 441.03 554.67 451.34 546.51 461.65 539.95 471.96 535.54 482.27 533.68 492.58 534.51 502.89 537.97 513.2 543.76 523.5 551.38 533.81 560.17 544.12 557.55 553.16 536.03 545.01 525.48 541.21 514.93 538.11 504.39 535.8 493.84 534.36 483.3 533.81 472.75 534.19 462.2 535.47 451.66 537.62 441.11 540.58 430.57 544.26 420.02 548.55 409.47 553.33 398.93 558.44 388.38 563.76 377.84 569.1 367.29 574.33 356.74 579.28 346.2 583.81 335.65 587.79 325.11 591.09 314.56 593.63 304.01 595.32 293.47 596.12 282.92 596 272.38 594.97 261.83 593.05 251.28 590.31 240.74 586.82 236.9 576.24 232.9 565.65 229.08 555.07 225.77 544.49 223.25 533.9 221.75 523.32 221.39 512.74 222.2 502.15 224.11 491.57 226.96 480.99 230.51 470.4 234.44 459.82 238.42 449.24 242.1 438.66 245.17 428.07 247.37 417.49 248.5 406.91 248.46 396.32 247.26 385.74 245.01 375.16 241.89 364.57 238.18 353.99 234.2 343.41 230.28 332.82 226.77 322.24 223.97 311.66 222.11 301.07 221.37 290.49 221.81 279.91 223.38 269.33 225.95 258.74 229.3 248.16" stroke-dasharray="4 9" transform="rotate(44.44, 400, 400)" opacity="0.66"></path><path d="M236.35 261.73Q245.62 263.29 254.9 264.41 264.17 265.05 273.44 265.21 282.72 264.88 291.99 264.05 301.27 262.77 310.54 261.05 319.82 258.95 329.09 256.51 338.36 253.81 347.64 250.9 356.91 247.87 366.19 244.79 375.46 241.74 384.73 238.8 394.01 236.05 403.28 233.55 412.56 231.37 421.83 229.56 431.1 228.18 440.38 227.25 449.65 226.81 458.93 226.86 468.2 227.4 477.48 228.42 486.75 229.89 496.02 231.77 505.3 234.02 514.57 236.57 525.8 245.63 524.38 261.45 523.22 271.01 524.37 280.56 527.75 290.12 533.1 299.67 540.02 309.23 547.99 318.79 556.42 328.34 564.66 337.9 572.1 347.46 578.18 357.01 582.44 366.57 584.56 376.13 584.39 385.68 581.93 395.24 577.38 404.79 571.06 414.35 563.47 423.91 555.16 433.46 546.76 443.02 538.91 452.58 532.19 462.13 527.11 471.69 524.05 481.24 523.24 490.8 524.75 500.36 528.44 509.91 534.06 519.47 541.18 529.03 538.64 537.9 518.95 531.22 509.26 528.21 499.57 525.86 489.89 524.23 480.2 523.36 470.51 523.28 460.83 523.99 451.14 525.48 441.45 527.69 431.76 530.58 422.08 534.07 412.39 538.07 402.7 542.48 393.01 547.19 383.33 552.07 373.64 557 363.95 561.85 354.27 566.5 344.58 570.84 334.89 574.73 325.2 578.1 315.52 580.85 305.83 582.9 296.14 584.22 286.46 584.76 276.77 584.51 267.08 583.47 257.39 581.68 247.71 579.18 243.81 569.26 240.07 559.34 236.78 549.42 234.19 539.5 232.48 529.58 231.78 519.66 232.16 509.74 233.57 499.81 235.92 489.89 239.02 479.97 242.65 470.05 246.53 460.13 250.37 450.21 253.88 440.29 256.8 430.37 258.9 420.45 260.04 410.53 260.12 400.61 259.14 390.69 257.17 380.77 254.36 370.85 250.92 360.93 247.11 351.01 243.22 341.09 239.54 331.17 236.34 321.25 233.87 311.33 232.31 301.41 231.77 291.49 232.31 281.57 233.87 271.65 236.35 261.73" stroke-dasharray="3 6" transform="rotate(48.48, 400, 400)" opacity="0.39"></path><path d="M244.07 274.85Q261.11 276.25 278.15 276.36 295.19 274.36 312.22 271.19 320.74 269.02 329.26 266.59 337.78 263.94 346.3 261.13 354.82 258.24 363.33 255.32 371.85 252.43 380.37 249.65 388.89 247.03 397.41 244.63 414.44 240.87 431.48 238.2 448.52 237.58 465.56 238.25 482.59 240.97 499.63 244.76 510.97 252.9 512.81 267.44 513.78 276.25 516.65 285.07 521.23 293.88 527.22 302.7 534.24 311.51 541.82 320.32 549.47 329.14 556.71 337.95 563.06 346.77 568.1 355.58 571.52 364.4 573.09 373.21 572.71 382.03 570.4 390.84 566.31 399.66 560.71 408.47 553.96 417.29 546.5 426.1 538.81 434.92 531.4 443.73 524.73 452.55 519.25 461.36 515.32 470.18 513.17 478.99 512.96 487.81 514.7 496.62 518.27 505.44 523.45 514.25 519.88 523.1 501.8 517.94 492.96 515.67 484.11 514.01 475.27 512.99 466.42 512.63 457.58 512.95 448.73 513.93 439.89 515.56 431.04 517.79 422.2 520.58 413.35 523.87 404.51 527.58 395.66 531.63 386.82 535.94 377.97 540.4 369.13 544.92 360.28 549.39 351.44 553.73 342.59 557.82 333.75 561.59 324.9 564.95 316.06 567.82 307.21 570.14 298.37 571.86 289.52 572.94 280.68 573.35 271.83 573.1 256.78 566.77 247.4 552.12 244.86 542.88 243.11 533.64 242.26 524.39 242.36 515.15 243.41 505.91 245.34 496.67 248.03 487.42 251.3 478.18 254.94 468.94 258.71 459.7 262.38 450.46 265.69 441.21 268.44 431.97 270.44 422.73 271.58 413.49 271.76 404.24 270.99 395 269.32 385.76 266.84 376.52 263.73 367.28 260.17 358.03 256.42 348.79 252.7 339.55 249.25 330.31 246.32 321.06 244.07 311.82 242.66 302.58 242.18 293.34 242.66 284.09 244.07 274.85" stroke-dasharray="2 7" transform="rotate(52.52, 400, 400)" opacity="0.10"></path><path d="M252.89 287.44Q268.52 288.04 284.15 287.12 299.78 284.77 315.41 281.16 331.04 276.56 346.67 271.32 362.3 265.82 377.93 260.49 393.56 255.73 409.19 251.88 424.82 249.25 440.45 248.02 456.08 248.3 471.71 250.05 487.34 253.16 502.97 257.38 503.51 273.55 510.26 289.72 521.75 305.89 535.48 322.07 548.45 338.24 557.83 354.41 561.57 370.58 558.86 386.76 550.29 402.93 537.73 419.1 523.92 435.27 511.87 451.44 504.21 467.62 502.61 483.79 504.48 504.9 485.46 505.19 469.39 502.57 453.33 502.16 437.26 503.99 421.19 507.92 405.12 513.67 389.05 520.79 372.98 528.75 356.91 536.96 340.85 544.79 324.78 551.67 308.71 557.06 292.64 560.57 276.57 561.93 260.5 561.05 255.21 543.95 252.7 526.85 253.53 509.74 257.52 492.64 263.79 475.54 270.98 458.44 277.52 441.34 281.98 424.24 283.39 407.14 281.44 390.04 276.56 372.94 269.81 355.84 262.66 338.74 256.68 321.64 253.17 304.54 252.89 287.44" stroke-dasharray="10 0" transform="rotate(56.56, 400, 400)" opacity="0.59"></path><path d="M263.11 299.42Q277.43 299.09 291.74 297.49 306.06 294.73 320.38 290.97 334.7 286.45 349.01 281.46 363.33 276.31 377.65 271.34 391.97 266.85 406.29 263.12 420.6 260.4 434.92 258.86 449.24 258.59 463.56 259.6 477.87 261.85 492.19 265.18 496.26 279.92 504.88 294.66 516.46 309.4 528.88 324.14 539.84 338.89 547.34 353.63 550 368.37 547.32 383.11 539.8 397.85 528.83 412.6 516.41 427.34 504.84 442.08 496.24 456.82 492.19 471.56 489.32 491.27 470.69 493.01 456.16 491.54 441.63 491.93 427.1 494.16 412.57 498.09 398.04 503.46 383.51 509.94 368.98 517.12 354.45 524.55 339.92 531.75 325.39 538.27 310.86 543.7 296.33 547.7 281.8 550 267.27 550.48 263.79 534.78 263.11 519.09 265.34 503.4 270.09 487.71 276.47 472.02 283.32 456.33 289.37 440.64 293.51 424.95 294.99 409.26 293.53 393.56 289.39 377.87 283.34 362.18 276.5 346.49 270.11 330.8 265.35 315.11 263.11 299.42" stroke-dasharray="10 0" transform="rotate(60.599999999999994, 400, 400)" opacity="0.62"></path><path d="M274.93 310.72Q288.01 309.6 301.09 307.46 314.17 304.41 327.24 300.61 340.32 296.24 353.4 291.56 366.48 286.79 379.56 282.18 392.64 277.99 405.72 274.43 418.8 271.67 431.87 269.88 444.95 269.14 458.03 269.49 471.11 270.91 484.19 273.33 490.71 286.66 500.16 300 511.12 313.34 521.9 326.68 530.87 340.02 536.66 353.36 538.38 366.69 535.79 380.03 529.26 393.37 519.79 406.71 508.84 420.05 498.06 433.39 489.1 446.72 483.32 460.06 476.37 478.38 458.06 481.38 444.98 480.9 431.9 481.93 418.82 484.43 405.74 488.27 392.66 493.25 379.58 499.1 366.5 505.52 353.42 512.17 340.34 518.71 327.27 524.8 314.19 530.11 301.11 534.37 288.03 537.35 274.95 538.91 273.42 524.65 274.42 510.38 277.79 496.12 283.03 481.86 289.32 467.6 295.72 453.34 301.24 439.07 305.05 424.81 306.57 410.55 305.56 396.29 302.18 382.03 296.95 367.76 290.65 353.5 284.26 339.24 278.73 324.98 274.93 310.72" stroke-dasharray="10 6" transform="rotate(64.64, 400, 400)" opacity="0.48"></path><path d="M288.38 321.3Q300.27 319.57 312.15 317.04 324.04 313.84 335.93 310.09 347.81 305.96 359.7 301.61 371.58 297.24 383.47 293.03 395.36 289.16 407.24 285.78 419.13 283.06 431.02 281.09 442.9 279.97 454.79 279.73 466.68 280.4 478.56 281.95 486.37 293.91 495.73 305.87 505.5 317.82 514.46 329.78 521.51 341.74 525.78 353.7 526.73 365.66 524.25 377.62 518.64 389.58 510.61 401.54 501.14 413.5 491.4 425.46 482.6 437.42 475.83 449.38 465.79 466.28 447.94 470.32 436.23 470.63 424.52 472.15 412.8 474.8 401.09 478.48 389.37 483.03 377.66 488.25 365.94 493.93 354.23 499.83 342.51 505.69 330.8 511.26 319.08 516.32 307.37 520.64 289.97 518.81 286.69 500.75 290.87 487.94 296.31 475.12 302.32 462.3 308.17 449.48 313.13 436.66 316.59 423.85 318.12 411.03 317.53 398.21 314.9 385.39 310.55 372.58 305.01 359.76 298.98 346.94 293.2 334.12 288.38 321.3" stroke-dasharray="8 3" transform="rotate(68.68, 400, 400)" opacity="0.42"></path><path d="M303.31 331.17Q314.02 328.99 324.73 326.25 335.45 323.02 346.16 319.43 356.87 315.59 367.58 311.63 378.29 307.68 389 303.88 399.71 300.34 410.42 297.2 421.13 294.55 431.85 292.49 442.56 291.08 453.27 290.38 463.98 290.39 474.69 291.14 482.69 301.74 491.2 312.34 499.4 322.95 506.49 333.55 511.76 344.15 514.71 354.76 515.03 365.36 512.71 375.96 507.97 386.57 501.27 397.17 493.27 407.77 484.75 418.38 476.55 428.98 469.48 439.59 464.21 450.19 461.28 460.79 450.86 459.83 440.44 459.8 430.02 460.73 419.6 462.56 409.18 465.25 398.76 468.7 388.34 472.8 377.92 477.41 367.5 482.37 357.08 487.52 346.66 492.69 336.24 497.7 325.82 502.38 315.4 506.58 300.73 505.9 299.91 490.27 304.53 478.9 309.88 467.54 315.44 456.17 320.66 444.81 325.03 433.45 328.13 422.08 329.64 410.72 329.43 399.35 327.5 387.99 324.06 376.62 319.44 365.26 314.09 353.89 308.53 342.53 303.31 331.17" stroke-dasharray="2 5" transform="rotate(72.72, 400, 400)" opacity="0.30"></path><path d="M319.42 340.31Q328.94 337.9 338.46 335.1 347.99 331.98 357.51 328.64 367.04 325.15 376.56 321.61 386.08 318.1 395.61 314.72 405.13 311.55 414.66 308.68 424.18 306.17 433.71 304.09 443.23 302.5 452.75 301.44 462.28 300.93 471.8 300.98 479.09 310.25 486.22 319.52 492.66 328.78 497.92 338.05 501.61 347.31 503.45 356.58 503.3 365.84 501.18 375.11 497.23 384.38 491.77 393.64 485.19 402.91 478 412.17 470.74 421.44 463.94 430.7 451.34 444.57 435.38 449.81 426.21 451.15 417.04 453.16 407.86 455.77 398.69 458.94 389.52 462.56 380.34 466.56 371.17 470.83 362 475.25 352.82 479.72 343.65 484.12 334.48 488.33 325.3 492.26 315.87 480.74 323.69 459.21 328.65 449.3 333.18 439.39 336.94 429.48 339.66 419.58 341.13 409.67 341.23 399.76 339.96 389.85 337.42 379.95 333.79 370.04 329.36 360.13 324.44 350.22 319.42 340.31" stroke-dasharray="9 4" transform="rotate(76.76, 400, 400)" opacity="0.22"></path><path d="M336.23 348.79Q352.83 343.62 369.44 337.73 386.04 331.56 402.65 325.57 419.25 320.21 435.85 315.89 452.46 312.93 469.06 311.56 480.48 327.44 488.73 343.32 492.02 359.21 489.64 375.09 482.1 390.97 471.04 406.86 458.88 422.74 448.28 438.62 432.38 440.3 416.49 443.91 400.59 449.18 384.69 455.72 368.8 463.02 352.9 470.55 332.91 472.43 337.67 450.23 345.71 433.32 351.2 416.41 352.93 399.51 350.54 382.6 344.53 365.69 336.23 348.79" stroke-dasharray="8 5" transform="rotate(80.80000000000001, 400, 400)" opacity="0.59"></path><path d="M353.18 356.65Q367.24 351.86 381.3 346.71 395.36 341.47 409.42 336.41 423.48 331.81 437.54 327.89 451.6 324.86 465.66 322.89 473.7 336.15 478.88 349.4 480.43 362.65 478.1 375.91 472.25 389.16 463.77 402.41 453.96 415.66 444.3 428.92 430.86 431.24 417.42 434.81 403.98 439.43 390.54 444.87 377.1 450.84 363.66 457.02 347.21 458.92 351.73 440.73 358.24 426.71 362.74 412.7 364.52 398.69 363.34 384.68 359.35 370.67 353.18 356.65" stroke-dasharray="8 9" transform="rotate(84.84, 400, 400)" opacity="0.73"></path><path d="M369.67 364Q381.07 359.87 392.47 355.6 403.88 351.35 415.28 347.26 426.68 343.46 438.08 340.08 457.59 341.43 468.39 356.27 468.69 366.9 466.57 377.53 462.23 388.16 456.12 398.79 448.81 409.42 441.03 420.04 430.1 422.58 419.18 425.83 408.25 429.69 397.32 434.02 386.39 438.7 375.46 443.55 362.21 445.2 365.81 430.85 370.76 419.71 374.27 408.56 375.99 397.42 375.75 386.28 373.57 375.14 369.67 364" stroke-dasharray="3 2" transform="rotate(88.88, 400, 400)" opacity="0.42"></path><path d="M385.09 370.93Q402.36 364.42 419.63 358.1 436.91 352.45 454.18 347.9 457.25 363.9 455.03 379.9 448 395.91 437.7 411.91 421.03 416.94 404.35 423.18 383.74 425.45 385.81 404.14 387.71 387.54 385.09 370.93" stroke-dasharray="3 6" transform="rotate(92.92, 400, 400)" opacity="0.18"></path><path d="M398.91 377.59Q410.49 373.19 422.07 368.95 439.58 368.62 443.49 382.95 439.37 393.67 433.54 404.39 422.25 408.13 410.96 412.33 396.65 413.71 397.35 399.57 399.16 388.58 398.91 377.59" stroke-dasharray="4 6" transform="rotate(96.96, 400, 400)" opacity="0.13"></path></g></svg>